<svg width="2000" height="1000" viewBox="0 0 2000 1000" fill="none" xmlns="http://www.w3.org/2000/svg">
<rect width="2000" height="1000" rx="80" fill="#F4B400"/>
<mask id="mask0" mask-type="alpha" maskUnits="userSpaceOnUse" x="875" y="500" width="1000" height="500">
<rect width="1000" height="500" rx="40" transform="matrix(-1 0 0 1 1875 500)" fill="#F4B400"/>
</mask>
<g mask="url(#mask0)">
<path d="M1685 1065C1712.61 1065 1735 1042.61 1735 1015L1735 675C1735 647.386 1712.61 625 1685 625L1065 625C1037.39 625 1015 647.386 1015 675L1015 1015C1015 1042.61 1037.39 1065 1065 1065L1685 1065Z" fill="white"/>
<path d="M1736.5 1008C1736.5 1036.17 1713.67 1059 1685.5 1059L1065.5 1059C1037.33 1059 1014.5 1036.17 1014.5 1008L1014.5 743C1014.5 714.833 1037.33 692 1065.5 692L1685.5 692C1713.67 692 1736.5 714.833 1736.5 743L1736.5 1008Z" fill="black" fill-opacity="0.1" stroke="white" stroke-width="2"/>
<rect width="30" height="30" transform="matrix(-1 0 0 1 1655.5 713)" fill="#333333"/>
<circle r="15" transform="matrix(-1 0 0 1 1580.5 728)" fill="#333333"/>
<path d="M1700.5 713L1685.5 743H1715.5L1700.5 713Z" fill="#333333"/>
<circle r="15" transform="matrix(-1 0 0 1 1050.5 728)" fill="#333333"/>
<path d="M1462.5 635.5H1287.5V663C1287.5 678.188 1299.81 690.5 1315 690.5H1435C1450.19 690.5 1462.5 678.188 1462.5 663V635.5Z" fill="white" stroke="white" stroke-width="5"/>
<path d="M1742.5 2023C1742.5 2054.76 1716.76 2080.5 1685 2080.5L1065 2080.5C1033.24 2080.5 1007.5 2054.76 1007.5 2023L1007.5 683.005C1007.5 651.249 1033.24 625.505 1065 625.505L1685 625.505C1716.76 625.505 1742.5 651.249 1742.5 683.005L1742.5 2023Z" stroke="white" stroke-width="15"/>
<mask id="path-11-inside-1" fill="white">
<path fill-rule="evenodd" clip-rule="evenodd" d="M1495 633C1478.43 633 1465 646.431 1465 663V633H1495ZM1285 633V663C1285 646.431 1271.57 633 1255 633H1285Z"/>
</mask>
<path fill-rule="evenodd" clip-rule="evenodd" d="M1495 633C1478.43 633 1465 646.431 1465 663V633H1495ZM1285 633V663C1285 646.431 1271.57 633 1255 633H1285Z" fill="white"/>
<path d="M1465 633H1464.5V632.5H1465V633ZM1285 633V632.5H1285.5V633H1285ZM1464.5 663C1464.5 646.155 1478.16 632.5 1495 632.5V633.5C1478.71 633.5 1465.5 646.708 1465.5 663H1464.5ZM1465.5 633V663H1464.5V633H1465.5ZM1495 633.5H1465V632.5H1495V633.5ZM1284.5 663V633H1285.5V663H1284.5ZM1284.5 663C1284.5 646.708 1271.29 633.5 1255 633.5V632.5C1271.84 632.5 1285.5 646.155 1285.5 663H1284.5ZM1285 633.5H1255V632.5H1285V633.5Z" fill="white" mask="url(#path-11-inside-1)"/>
</g>
<mask id="mask1" mask-type="alpha" maskUnits="userSpaceOnUse" x="0" y="0" width="500" height="1000">
<rect width="1000" height="500" rx="40" transform="matrix(1.19249e-08 -1 -1 -1.19249e-08 500 1000)" fill="#F4B400"/>
</mask>
<g mask="url(#mask1)">
<path d="M-1023 867.501C-1054.76 867.501 -1080.5 841.758 -1080.5 810.001L-1080.5 190.002C-1080.5 158.245 -1054.76 132.502 -1023 132.502L316.992 132.502C348.749 132.502 374.492 158.245 374.492 190.002L374.492 810.002C374.492 841.758 348.749 867.502 316.992 867.502L-1023 867.501Z" fill="#333333" stroke="white" stroke-width="15"/>
<rect width="30" height="30" transform="matrix(1.19249e-08 -1 -1 -1.19249e-08 350 759.997)" fill="#F4B400"/>
<circle r="15" transform="matrix(1.19249e-08 -1 -1 -1.19249e-08 335 684.996)" fill="#F4B400"/>
<path d="M350 804.996L320 789.996L320 819.996L350 804.996Z" fill="#F4B400"/>
<circle r="15" transform="matrix(1.19249e-08 -1 -1 -1.19249e-08 335 195)" fill="#F4B400"/>
<path d="M364.5 587.5L364.5 412.5L337 412.5C321.812 412.5 309.5 424.812 309.5 440L309.5 560C309.5 575.188 321.812 587.5 337 587.5L364.5 587.5Z" fill="white" stroke="white" stroke-width="5"/>
<mask id="path-20-inside-2" fill="white">
<path fill-rule="evenodd" clip-rule="evenodd" d="M367 380.024L367 619.961C366.981 603.484 353.679 590.119 337.227 589.997L367 589.997L367 409.997L337 409.997L337 409.996C353.559 409.996 366.985 396.579 367 380.024Z"/>
</mask>
<path fill-rule="evenodd" clip-rule="evenodd" d="M367 380.024L367 619.961C366.981 603.484 353.679 590.119 337.227 589.997L367 589.997L367 409.997L337 409.997L337 409.996C353.559 409.996 366.985 396.579 367 380.024Z" fill="white"/>
<path d="M367 380.024L366.5 380.023L367.5 380.024L367 380.024ZM367 619.961L367.5 619.961L366.5 619.962L367 619.961ZM337.227 589.997L337.223 590.497L337.227 589.497L337.227 589.997ZM367 589.997L367.5 589.997L367.5 590.497L367 590.497L367 589.997ZM367 409.997L367 409.497L367.5 409.497L367.5 409.997L367 409.997ZM337 409.997L337 410.497L336.495 410.497L336.5 409.993L337 409.997ZM337 409.996L336.5 409.991L336.505 409.496L337 409.496L337 409.996ZM367.5 380.024L367.5 619.961L366.5 619.961L366.5 380.024L367.5 380.024ZM366.5 619.962C366.481 603.76 353.401 590.617 337.223 590.497L337.231 589.497C353.957 589.621 367.481 603.209 367.5 619.96L366.5 619.962ZM337.227 589.497L367 589.497L367 590.497L337.227 590.497L337.227 589.497ZM366.5 589.997L366.5 409.997L367.5 409.997L367.5 589.997L366.5 589.997ZM367 410.497L337 410.497L337 409.497L367 409.497L367 410.497ZM336.5 409.993L336.5 409.991L337.5 410L337.5 410.002L336.5 409.993ZM337 409.496C353.283 409.496 366.485 396.303 366.5 380.023L367.5 380.024C367.485 396.856 353.835 410.496 337 410.496L337 409.496Z" fill="white" mask="url(#path-20-inside-2)"/>
</g>
<mask id="mask2" mask-type="alpha" maskUnits="userSpaceOnUse" x="567" y="0" width="1001" height="501">
<rect width="1000" height="500" rx="40" transform="matrix(1 1.74846e-07 1.74846e-07 -1 567.5 500)" fill="#F4B400"/>
</mask>
<g mask="url(#mask2)">
<path d="M758.967 10.0012C730.819 10.0012 708 32.8199 708 60.9681L708 324.033C708 352.181 730.819 375 758.967 375L1377.03 375C1405.18 375 1428 352.182 1428 324.033L1428 60.9682C1428 32.82 1405.18 10.0014 1377.03 10.0014L758.967 10.0012Z" fill="white"/>
<path d="M706.5 -7.03144C706.5 -35.7319 729.766 -58.9983 758.467 -58.9983L1376.53 -58.9981C1405.24 -58.9981 1428.5 -35.7318 1428.5 -7.03129L1428.5 256.034C1428.5 284.734 1405.24 308.001 1376.53 308.001L758.467 308.001C729.766 308.001 706.5 284.734 706.5 256.034L706.5 -7.03144Z" fill="#DB4437" stroke="white" stroke-width="2"/>
<rect width="30.0001" height="29.9999" transform="matrix(1 1.74846e-07 1.74846e-07 -1 807.996 350.475)" fill="#F4B400"/>
<ellipse rx="15" ry="15" transform="matrix(1 1.74846e-07 1.74846e-07 -1 882.992 335.475)" fill="#F4B400"/>
<path d="M762.992 350.475L777.992 320.475L747.992 320.475L762.992 350.475Z" fill="#F4B400"/>
<ellipse rx="15" ry="15" transform="matrix(1 1.74846e-07 1.74846e-07 -1 1373 335.475)" fill="#F4B400"/>
<path d="M980.496 364.501L1155.5 364.501L1155.5 337.581C1155.5 322.073 1142.92 309.501 1127.42 309.501L1008.58 309.501C993.068 309.501 980.496 322.073 980.496 337.581L980.496 364.501Z" fill="white" stroke="white" stroke-width="5"/>
<path d="M700.492 -1022.03C700.492 -1054.32 726.669 -1080.5 758.959 -1080.5L1377.03 -1080.5C1409.32 -1080.5 1435.49 -1054.32 1435.49 -1022.03L1435.49 316.028C1435.49 348.319 1409.32 374.495 1377.03 374.495L758.959 374.495C726.668 374.495 700.492 348.319 700.492 316.028L700.492 -1022.03Z" stroke="white" stroke-width="15"/>
<mask id="path-31-inside-3" fill="white">
<path fill-rule="evenodd" clip-rule="evenodd" d="M948.012 367.001C964.572 366.991 977.994 353.564 977.994 337.001L978.003 337.001C977.999 337.194 977.998 337.387 977.998 337.581L977.998 367.001L1158 367.001L1158 337.581C1158 337.56 1158 337.539 1158 337.518C1158.27 353.848 1171.6 367.001 1187.99 367.001C1187.99 367.001 1187.99 367.001 1187.99 367.001L948.012 367.001ZM1157.99 337.001C1157.99 337.021 1157.99 337.04 1157.99 337.06C1157.99 337.04 1157.99 337.021 1157.99 337.001L1157.99 337.001Z"/>
</mask>
<path fill-rule="evenodd" clip-rule="evenodd" d="M948.012 367.001C964.572 366.991 977.994 353.564 977.994 337.001L978.003 337.001C977.999 337.194 977.998 337.387 977.998 337.581L977.998 367.001L1158 367.001L1158 337.581C1158 337.56 1158 337.539 1158 337.518C1158.27 353.848 1171.6 367.001 1187.99 367.001C1187.99 367.001 1187.99 367.001 1187.99 367.001L948.012 367.001ZM1157.99 337.001C1157.99 337.021 1157.99 337.04 1157.99 337.06C1157.99 337.04 1157.99 337.021 1157.99 337.001L1157.99 337.001Z" fill="white"/>
<path d="M977.994 337.001L977.484 337.001L977.484 336.492L977.994 336.491L977.994 337.001ZM948.012 367.001L948.012 367.511L948.011 366.491L948.012 367.001ZM978.003 337.001L978.003 336.491L978.522 336.491L978.513 337.011L978.003 337.001ZM977.998 367.001L977.998 367.511L977.488 367.511L977.488 367.001L977.998 367.001ZM1158 367.001L1158.51 367.001L1158.51 367.511L1158 367.511L1158 367.001ZM1158 337.518L1157.49 337.519L1158.51 337.509L1158 337.518ZM1157.99 337.001L1157.97 336.492L1158.5 336.472L1158.5 337.001L1157.99 337.001ZM1157.99 337.06L1158.5 337.059L1157.48 337.068L1157.99 337.06ZM1157.99 337.001L1157.48 337.011L1157.47 336.51L1157.97 336.492L1157.99 337.001ZM978.504 337.001C978.504 353.845 964.854 367.501 948.012 367.511L948.011 366.491C964.29 366.482 977.484 353.282 977.484 337.001L978.504 337.001ZM978.003 337.511L977.994 337.511L977.994 336.491L978.003 336.491L978.003 337.511ZM977.488 337.581C977.488 337.384 977.49 337.188 977.493 336.992L978.513 337.011C978.509 337.2 978.507 337.391 978.507 337.581L977.488 337.581ZM977.488 367.001L977.488 337.581L978.507 337.581L978.507 367.001L977.488 367.001ZM1158 367.511L977.998 367.511L977.998 366.491L1158 366.491L1158 367.511ZM1158.51 337.581L1158.51 367.001L1157.49 367.001L1157.49 337.581L1158.51 337.581ZM1158.51 337.517C1158.51 337.538 1158.51 337.56 1158.51 337.581L1157.49 337.581C1157.49 337.56 1157.49 337.539 1157.49 337.519L1158.51 337.517ZM1158.51 337.509C1158.78 353.562 1171.88 366.491 1187.99 366.491L1187.99 367.511C1171.32 367.511 1157.77 354.134 1157.49 337.526L1158.51 337.509ZM1187.99 366.491C1188.01 366.491 1188.02 366.492 1188.03 366.493C1188.03 366.493 1188.04 366.493 1188.04 366.493C1188.04 366.493 1188.04 366.494 1188.04 366.494C1188.04 366.494 1188.04 366.494 1188.04 366.494C1188.04 366.494 1188.04 366.494 1188.04 366.494C1188.04 366.494 1188.04 366.494 1188.04 366.494C1188.04 366.494 1188.04 366.494 1188.04 366.494C1188.04 366.494 1188.04 366.494 1188.04 366.493C1188.04 366.493 1188.03 366.493 1188.03 366.493C1188.02 366.492 1188.01 366.491 1187.99 366.491L1187.99 367.511C1187.98 367.511 1187.97 367.51 1187.96 367.509C1187.95 367.509 1187.95 367.509 1187.95 367.509C1187.95 367.509 1187.95 367.508 1187.95 367.508C1187.95 367.508 1187.95 367.508 1187.95 367.508C1187.95 367.508 1187.95 367.508 1187.95 367.508C1187.95 367.508 1187.95 367.508 1187.95 367.508C1187.95 367.508 1187.95 367.508 1187.95 367.508C1187.94 367.508 1187.95 367.508 1187.95 367.509C1187.95 367.509 1187.95 367.509 1187.96 367.509C1187.97 367.51 1187.98 367.511 1187.99 367.511L1187.99 366.491ZM948.012 366.491L1187.99 366.491L1187.99 367.511L948.012 367.511L948.012 366.491ZM1158.5 337.001C1158.5 337.02 1158.5 337.039 1158.5 337.059L1157.48 337.061C1157.48 337.041 1157.48 337.021 1157.48 337.001L1158.5 337.001ZM1158.5 336.992C1158.5 337.011 1158.5 337.031 1158.5 337.051L1157.48 337.068C1157.48 337.049 1157.48 337.03 1157.48 337.011L1158.5 336.992ZM1158.01 337.51L1158.01 337.51L1157.97 336.492L1157.97 336.492L1158.01 337.51Z" fill="white" mask="url(#path-31-inside-3)"/>
</g>
<path d="M612.64 499.632C616.416 500.336 619.52 502.224 621.952 505.296C624.384 508.368 625.6 511.888 625.6 515.856C625.6 519.44 624.704 522.608 622.912 525.36C621.184 528.048 618.656 530.16 615.328 531.696C612 533.232 608.064 534 603.52 534H574.624V466.992H602.272C606.816 466.992 610.72 467.728 613.984 469.2C617.312 470.672 619.808 472.72 621.472 475.344C623.2 477.968 624.064 480.944 624.064 484.272C624.064 488.176 623.008 491.44 620.896 494.064C618.848 496.688 616.096 498.544 612.64 499.632ZM588.064 494.64H600.352C603.552 494.64 606.016 493.936 607.744 492.528C609.472 491.056 610.336 488.976 610.336 486.288C610.336 483.6 609.472 481.52 607.744 480.048C606.016 478.576 603.552 477.84 600.352 477.84H588.064V494.64ZM601.6 523.056C604.864 523.056 607.392 522.288 609.184 520.752C611.04 519.216 611.968 517.04 611.968 514.224C611.968 511.344 611.008 509.104 609.088 507.504C607.168 505.84 604.576 505.008 601.312 505.008H588.064V523.056H601.6ZM685.752 506.256C685.752 508.176 685.624 509.904 685.368 511.44H646.488C646.808 515.28 648.152 518.288 650.52 520.464C652.888 522.64 655.8 523.728 659.256 523.728C664.248 523.728 667.8 521.584 669.912 517.296H684.408C682.872 522.416 679.928 526.64 675.576 529.968C671.224 533.232 665.88 534.864 659.544 534.864C654.424 534.864 649.816 533.744 645.72 531.504C641.688 529.2 638.52 525.968 636.216 521.808C633.976 517.648 632.855 512.848 632.855 507.408C632.855 501.904 633.976 497.072 636.216 492.912C638.456 488.752 641.592 485.552 645.624 483.312C649.656 481.072 654.296 479.952 659.544 479.952C664.6 479.952 669.112 481.04 673.08 483.216C677.112 485.392 680.216 488.496 682.392 492.528C684.632 496.496 685.752 501.072 685.752 506.256ZM671.832 502.416C671.768 498.96 670.52 496.208 668.088 494.16C665.656 492.048 662.68 490.992 659.16 490.992C655.832 490.992 653.016 492.016 650.712 494.064C648.472 496.048 647.096 498.832 646.584 502.416H671.832ZM711.21 491.856V517.584C711.21 519.376 711.626 520.688 712.458 521.52C713.354 522.288 714.826 522.672 716.874 522.672H723.114V534H714.666C703.338 534 697.674 528.496 697.674 517.488V491.856H691.338V480.816H697.674V467.664H711.21V480.816H723.114V491.856H711.21ZM748.428 491.856V517.584C748.428 519.376 748.844 520.688 749.676 521.52C750.572 522.288 752.044 522.672 754.092 522.672H760.332V534H751.884C740.556 534 734.892 528.496 734.892 517.488V491.856H728.556V480.816H734.892V467.664H748.428V480.816H760.332V491.856H748.428ZM819.439 506.256C819.439 508.176 819.311 509.904 819.055 511.44H780.175C780.495 515.28 781.839 518.288 784.207 520.464C786.575 522.64 789.487 523.728 792.943 523.728C797.935 523.728 801.487 521.584 803.599 517.296H818.095C816.559 522.416 813.615 526.64 809.263 529.968C804.911 533.232 799.567 534.864 793.231 534.864C788.111 534.864 783.503 533.744 779.407 531.504C775.375 529.2 772.207 525.968 769.903 521.808C767.663 517.648 766.543 512.848 766.543 507.408C766.543 501.904 767.663 497.072 769.903 492.912C772.143 488.752 775.279 485.552 779.311 483.312C783.343 481.072 787.983 479.952 793.231 479.952C798.287 479.952 802.799 481.04 806.767 483.216C810.799 485.392 813.903 488.496 816.079 492.528C818.319 496.496 819.439 501.072 819.439 506.256ZM805.519 502.416C805.455 498.96 804.207 496.208 801.775 494.16C799.343 492.048 796.367 490.992 792.847 490.992C789.519 490.992 786.703 492.016 784.399 494.064C782.159 496.048 780.783 498.832 780.271 502.416H805.519ZM842.689 489.072C844.417 486.256 846.657 484.048 849.409 482.448C852.225 480.848 855.425 480.048 859.009 480.048V494.16H855.457C851.233 494.16 848.033 495.152 845.857 497.136C843.745 499.12 842.689 502.576 842.689 507.504V534H829.249V480.816H842.689V489.072ZM920.409 480.048C926.745 480.048 931.865 482.064 935.769 486.096C939.673 490.064 941.625 495.632 941.625 502.8V534H928.185V504.624C928.185 500.4 927.129 497.168 925.017 494.928C922.905 492.624 920.025 491.472 916.377 491.472C912.665 491.472 909.721 492.624 907.545 494.928C905.433 497.168 904.377 500.4 904.377 504.624V534H890.937V480.816H904.377V487.44C906.169 485.136 908.441 483.344 911.193 482.064C914.009 480.72 917.081 480.048 920.409 480.048ZM978.021 534.864C972.901 534.864 968.293 533.744 964.197 531.504C960.101 529.2 956.869 525.968 954.501 521.808C952.197 517.648 951.045 512.848 951.045 507.408C951.045 501.968 952.229 497.168 954.597 493.008C957.029 488.848 960.325 485.648 964.485 483.408C968.645 481.104 973.285 479.952 978.405 479.952C983.525 479.952 988.165 481.104 992.325 483.408C996.485 485.648 999.749 488.848 1002.12 493.008C1004.55 497.168 1005.77 501.968 1005.77 507.408C1005.77 512.848 1004.52 517.648 1002.02 521.808C999.589 525.968 996.261 529.2 992.037 531.504C987.877 533.744 983.205 534.864 978.021 534.864ZM978.021 523.152C980.453 523.152 982.725 522.576 984.837 521.424C987.013 520.208 988.741 518.416 990.021 516.048C991.301 513.68 991.941 510.8 991.941 507.408C991.941 502.352 990.597 498.48 987.909 495.792C985.285 493.04 982.053 491.664 978.213 491.664C974.373 491.664 971.141 493.04 968.517 495.792C965.957 498.48 964.677 502.352 964.677 507.408C964.677 512.464 965.925 516.368 968.421 519.12C970.981 521.808 974.181 523.152 978.021 523.152ZM1031.27 491.856V517.584C1031.27 519.376 1031.69 520.688 1032.52 521.52C1033.42 522.288 1034.89 522.672 1036.94 522.672H1043.18V534H1034.73C1023.4 534 1017.74 528.496 1017.74 517.488V491.856H1011.4V480.816H1017.74V467.664H1031.27V480.816H1043.18V491.856H1031.27ZM1049.39 507.408C1049.39 501.904 1050.51 497.104 1052.75 493.008C1054.99 488.848 1058.09 485.648 1062.06 483.408C1066.03 481.104 1070.57 479.952 1075.69 479.952C1082.28 479.952 1087.72 481.616 1092.01 484.944C1096.36 488.208 1099.27 492.816 1100.75 498.768H1086.25C1085.48 496.464 1084.17 494.672 1082.31 493.392C1080.52 492.048 1078.28 491.376 1075.59 491.376C1071.75 491.376 1068.71 492.784 1066.47 495.6C1064.23 498.352 1063.11 502.288 1063.11 507.408C1063.11 512.464 1064.23 516.4 1066.47 519.216C1068.71 521.968 1071.75 523.344 1075.59 523.344C1081.03 523.344 1084.59 520.912 1086.25 516.048H1100.75C1099.27 521.808 1096.36 526.384 1092.01 529.776C1087.66 533.168 1082.22 534.864 1075.69 534.864C1070.57 534.864 1066.03 533.744 1062.06 531.504C1058.09 529.2 1054.99 526 1052.75 521.904C1050.51 517.744 1049.39 512.912 1049.39 507.408ZM1140.54 480.048C1144.58 480.048 1148.16 480.944 1151.3 482.736C1154.43 484.464 1156.86 487.056 1158.59 490.512C1160.38 493.904 1161.28 498 1161.28 502.8V534H1147.84V504.624C1147.84 500.4 1146.78 497.168 1144.67 494.928C1142.56 492.624 1139.68 491.472 1136.03 491.472C1132.32 491.472 1129.38 492.624 1127.2 494.928C1125.09 497.168 1124.03 500.4 1124.03 504.624V534H1110.59V462.96H1124.03V487.44C1125.76 485.136 1128.06 483.344 1130.94 482.064C1133.82 480.72 1137.02 480.048 1140.54 480.048ZM1226.89 480.048C1230.92 480.048 1234.5 480.944 1237.64 482.736C1240.78 484.464 1243.21 487.056 1244.94 490.512C1246.73 493.904 1247.62 498 1247.62 502.8V534H1234.18V504.624C1234.18 500.4 1233.13 497.168 1231.02 494.928C1228.9 492.624 1226.02 491.472 1222.38 491.472C1218.66 491.472 1215.72 492.624 1213.54 494.928C1211.43 497.168 1210.38 500.4 1210.38 504.624V534H1196.94V462.96H1210.38V487.44C1212.1 485.136 1214.41 483.344 1217.29 482.064C1220.17 480.72 1223.37 480.048 1226.89 480.048ZM1256.95 507.216C1256.95 501.84 1258.01 497.072 1260.12 492.912C1262.29 488.752 1265.21 485.552 1268.85 483.312C1272.57 481.072 1276.69 479.952 1281.24 479.952C1285.21 479.952 1288.66 480.752 1291.61 482.352C1294.61 483.952 1297.01 485.968 1298.81 488.4V480.816H1312.34V534H1298.81V526.224C1297.08 528.72 1294.68 530.8 1291.61 532.464C1288.6 534.064 1285.11 534.864 1281.14 534.864C1276.66 534.864 1272.57 533.712 1268.85 531.408C1265.21 529.104 1262.29 525.872 1260.12 521.712C1258.01 517.488 1256.95 512.656 1256.95 507.216ZM1298.81 507.408C1298.81 504.144 1298.17 501.36 1296.89 499.056C1295.61 496.688 1293.88 494.896 1291.7 493.68C1289.53 492.4 1287.19 491.76 1284.69 491.76C1282.2 491.76 1279.89 492.368 1277.78 493.584C1275.67 494.8 1273.94 496.592 1272.6 498.96C1271.32 501.264 1270.68 504.016 1270.68 507.216C1270.68 510.416 1271.32 513.232 1272.6 515.664C1273.94 518.032 1275.67 519.856 1277.78 521.136C1279.96 522.416 1282.26 523.056 1284.69 523.056C1287.19 523.056 1289.53 522.448 1291.7 521.232C1293.88 519.952 1295.61 518.16 1296.89 515.856C1298.17 513.488 1298.81 510.672 1298.81 507.408ZM1354.94 480.048C1361.28 480.048 1366.4 482.064 1370.3 486.096C1374.2 490.064 1376.16 495.632 1376.16 502.8V534H1362.72V504.624C1362.72 500.4 1361.66 497.168 1359.55 494.928C1357.44 492.624 1354.56 491.472 1350.91 491.472C1347.2 491.472 1344.25 492.624 1342.08 494.928C1339.96 497.168 1338.91 500.4 1338.91 504.624V534H1325.47V480.816H1338.91V487.44C1340.7 485.136 1342.97 483.344 1345.72 482.064C1348.54 480.72 1351.61 480.048 1354.94 480.048ZM1385.48 507.216C1385.48 501.84 1386.54 497.072 1388.65 492.912C1390.82 488.752 1393.77 485.552 1397.48 483.312C1401.19 481.072 1405.32 479.952 1409.86 479.952C1413.32 479.952 1416.62 480.72 1419.75 482.256C1422.89 483.728 1425.38 485.712 1427.24 488.208V462.96H1440.87V534H1427.24V526.128C1425.58 528.752 1423.24 530.864 1420.23 532.464C1417.22 534.064 1413.74 534.864 1409.77 534.864C1405.29 534.864 1401.19 533.712 1397.48 531.408C1393.77 529.104 1390.82 525.872 1388.65 521.712C1386.54 517.488 1385.48 512.656 1385.48 507.216ZM1427.34 507.408C1427.34 504.144 1426.7 501.36 1425.42 499.056C1424.14 496.688 1422.41 494.896 1420.23 493.68C1418.06 492.4 1415.72 491.76 1413.22 491.76C1410.73 491.76 1408.42 492.368 1406.31 493.584C1404.2 494.8 1402.47 496.592 1401.13 498.96C1399.85 501.264 1399.21 504.016 1399.21 507.216C1399.21 510.416 1399.85 513.232 1401.13 515.664C1402.47 518.032 1404.2 519.856 1406.31 521.136C1408.49 522.416 1410.79 523.056 1413.22 523.056C1415.72 523.056 1418.06 522.448 1420.23 521.232C1422.41 519.952 1424.14 518.16 1425.42 515.856C1426.7 513.488 1427.34 510.672 1427.34 507.408ZM1467.44 462.96V534H1454V462.96H1467.44ZM1487.53 474.48C1485.17 474.48 1483.18 473.744 1481.58 472.272C1480.05 470.736 1479.28 468.848 1479.28 466.608C1479.28 464.368 1480.05 462.512 1481.58 461.04C1483.18 459.504 1485.17 458.736 1487.53 458.736C1489.9 458.736 1491.85 459.504 1493.39 461.04C1494.99 462.512 1495.79 464.368 1495.79 466.608C1495.79 468.848 1494.99 470.736 1493.39 472.272C1491.85 473.744 1489.9 474.48 1487.53 474.48ZM1494.16 480.816V534H1480.72V480.816H1494.16ZM1536.91 480.048C1543.24 480.048 1548.36 482.064 1552.27 486.096C1556.17 490.064 1558.12 495.632 1558.12 502.8V534H1544.68V504.624C1544.68 500.4 1543.63 497.168 1541.52 494.928C1539.4 492.624 1536.52 491.472 1532.88 491.472C1529.16 491.472 1526.22 492.624 1524.04 494.928C1521.93 497.168 1520.88 500.4 1520.88 504.624V534H1507.44V480.816H1520.88V487.44C1522.67 485.136 1524.94 483.344 1527.69 482.064C1530.51 480.72 1533.58 480.048 1536.91 480.048ZM1591.74 479.952C1595.71 479.952 1599.19 480.752 1602.2 482.352C1605.21 483.888 1607.58 485.904 1609.31 488.4V480.816H1622.84V534.384C1622.84 539.312 1621.85 543.696 1619.87 547.536C1617.88 551.44 1614.91 554.512 1610.94 556.752C1606.97 559.056 1602.17 560.208 1596.54 560.208C1588.99 560.208 1582.78 558.448 1577.91 554.928C1573.11 551.408 1570.39 546.608 1569.75 540.528H1583.1C1583.8 542.96 1585.31 544.88 1587.61 546.288C1589.98 547.76 1592.83 548.496 1596.15 548.496C1600.06 548.496 1603.23 547.312 1605.66 544.944C1608.09 542.64 1609.31 539.12 1609.31 534.384V526.128C1607.58 528.624 1605.18 530.704 1602.11 532.368C1599.1 534.032 1595.64 534.864 1591.74 534.864C1587.26 534.864 1583.16 533.712 1579.45 531.408C1575.74 529.104 1572.79 525.872 1570.62 521.712C1568.51 517.488 1567.45 512.656 1567.45 507.216C1567.45 501.84 1568.51 497.072 1570.62 492.912C1572.79 488.752 1575.71 485.552 1579.35 483.312C1583.07 481.072 1587.19 479.952 1591.74 479.952ZM1609.31 507.408C1609.31 504.144 1608.67 501.36 1607.39 499.056C1606.11 496.688 1604.38 494.896 1602.2 493.68C1600.03 492.4 1597.69 491.76 1595.19 491.76C1592.7 491.76 1590.39 492.368 1588.28 493.584C1586.17 494.8 1584.44 496.592 1583.1 498.96C1581.82 501.264 1581.18 504.016 1581.18 507.216C1581.18 510.416 1581.82 513.232 1583.1 515.664C1584.44 518.032 1586.17 519.856 1588.28 521.136C1590.46 522.416 1592.76 523.056 1595.19 523.056C1597.69 523.056 1600.03 522.448 1602.2 521.232C1604.38 519.952 1606.11 518.16 1607.39 515.856C1608.67 513.488 1609.31 510.672 1609.31 507.408Z" fill="white"/>
</svg>
