<svg width="1750" height="875" viewBox="0 0 1750 875" fill="none" xmlns="http://www.w3.org/2000/svg">
<rect width="1750" height="875" rx="80" fill="#F4B400"/>
<path d="M938 524C902.102 524 873 553.101 873 589L873 875H888L888 638.928C888.039 611.347 910.41 589 938 589H1152.68C1152.79 589.001 1152.89 589.002 1153 589.002L1253 589.002C1253.11 589.002 1253.21 589.001 1253.32 589H1468C1495.61 589 1517.99 611.374 1518 638.979V589L1518 875H1533V589C1533 553.101 1503.9 524 1468 524L938 524Z" fill="white"/>
<path d="M888 639C888 611.386 910.386 589 938 589H1468C1495.61 589 1518 611.386 1518 639V875H888V639Z" fill="white"/>
<path d="M888 639C888 611.386 910.386 589 938 589H1468C1495.61 589 1518 611.386 1518 639V875H888V639Z" fill="black" fill-opacity="0.1"/>
<path d="M1447 606L1420.75 606V632.25L1447 632.25V606Z" fill="black"/>
<path d="M1368.25 619.125C1368.25 626.374 1374.13 632.25 1381.38 632.25C1388.62 632.25 1394.5 626.374 1394.5 619.125C1394.5 611.876 1388.62 606 1381.38 606C1374.13 606 1368.25 611.876 1368.25 619.125Z" fill="black"/>
<path d="M1486.38 606L1473.25 632.25L1499.5 632.25L1486.38 606Z" fill="black"/>
<path d="M907 619.125C907 626.374 912.876 632.25 920.125 632.25C927.374 632.25 933.25 626.374 933.25 619.125C933.25 611.876 927.374 606 920.125 606C912.876 606 907 611.876 907 619.125Z" fill="black"/>
<path d="M1199 351C1234.9 351 1264 321.899 1264 286L1264 0L1249 -1.31135e-06L1249 236.072C1248.96 263.653 1226.59 286 1199 286L984.316 286C984.211 285.999 984.106 285.998 984 285.998L884 285.998C883.894 285.998 883.789 285.999 883.684 286L669 286C641.393 286 619.011 263.626 619 236.021L619 286L619 -5.63877e-05L604 -5.7699e-05L604 286C604 321.898 633.101 351 669 351L1199 351Z" fill="white"/>
<path d="M1249 236C1249 263.614 1226.61 286 1199 286L669 286C641.386 286 619 263.614 619 236L619 -5.50763e-05L1249 0L1249 236Z" fill="#DB4437"/>
<path d="M707.504 323.998H733.754V297.748H707.504V323.998Z" fill="#F4B400"/>
<path d="M786.253 310.873C786.253 303.624 780.377 297.748 773.128 297.748C765.88 297.748 760.003 303.624 760.003 310.873C760.003 318.122 765.88 323.998 773.128 323.998C780.377 323.998 786.253 318.122 786.253 310.873Z" fill="#F4B400"/>
<path d="M668.129 323.998L681.254 297.748H655.004L668.129 323.998Z" fill="#F4B400"/>
<path d="M1215 310.873C1215 303.624 1209.12 297.748 1201.88 297.748C1194.63 297.748 1188.75 303.624 1188.75 310.873C1188.75 318.122 1194.63 323.998 1201.88 323.998C1209.12 323.998 1215 318.122 1215 310.873Z" fill="#F4B400"/>
<path d="M286 121.999C313.614 121.999 336 144.385 336 171.999L336 701.999C336 729.613 313.614 751.999 286 751.999L-6.2589e-05 751.999L0 121.999L286 121.999Z" fill="black"/>
<path d="M323.996 663.498V637.248H297.746L297.746 663.498H323.996Z" fill="#F4B400"/>
<path d="M310.871 584.749C303.622 584.749 297.746 590.625 297.746 597.874C297.746 605.122 303.622 610.999 310.871 610.999C318.12 610.999 323.996 605.122 323.996 597.874C323.996 590.625 318.12 584.749 310.871 584.749Z" fill="#F4B400"/>
<path d="M323.996 702.873L297.746 689.748L297.746 715.998L323.996 702.873Z" fill="#F4B400"/>
<path d="M310.871 156.002C303.622 156.002 297.746 161.878 297.746 169.127C297.746 176.376 303.622 182.252 310.871 182.252C318.12 182.252 323.996 176.376 323.996 169.127C323.996 161.878 318.12 156.002 310.871 156.002Z" fill="#F4B400"/>
<path d="M286 107C321.898 107 351 136.102 351 172L351 702C351 737.899 321.898 767 286 767L-6.55695e-05 767L-6.40793e-05 752L286 752C313.614 752 336 729.614 336 702L336 172C336 144.386 313.614 122 286 122L-1.49022e-06 122L0 107L286 107Z" fill="white"/>
<path d="M310.998 362C324.805 362 335.998 350.807 335.998 337L335.998 537C335.998 523.193 324.805 512 310.998 512C297.191 512 285.998 500.807 285.998 487L285.998 387C285.998 373.193 297.191 362 310.998 362Z" fill="white"/>
<path d="M487.64 436.632C491.416 437.336 494.52 439.224 496.952 442.296C499.384 445.368 500.6 448.888 500.6 452.856C500.6 456.44 499.704 459.608 497.912 462.36C496.184 465.048 493.656 467.16 490.328 468.696C487 470.232 483.064 471 478.52 471H449.624V403.992H477.272C481.816 403.992 485.72 404.728 488.984 406.2C492.312 407.672 494.808 409.72 496.472 412.344C498.2 414.968 499.064 417.944 499.064 421.272C499.064 425.176 498.008 428.44 495.896 431.064C493.848 433.688 491.096 435.544 487.64 436.632ZM463.064 431.64H475.352C478.552 431.64 481.016 430.936 482.744 429.528C484.472 428.056 485.336 425.976 485.336 423.288C485.336 420.6 484.472 418.52 482.744 417.048C481.016 415.576 478.552 414.84 475.352 414.84H463.064V431.64ZM476.6 460.056C479.864 460.056 482.392 459.288 484.184 457.752C486.04 456.216 486.968 454.04 486.968 451.224C486.968 448.344 486.008 446.104 484.088 444.504C482.168 442.84 479.576 442.008 476.312 442.008H463.064V460.056H476.6ZM560.752 443.256C560.752 445.176 560.624 446.904 560.368 448.44H521.488C521.808 452.28 523.152 455.288 525.52 457.464C527.888 459.64 530.8 460.728 534.256 460.728C539.248 460.728 542.8 458.584 544.912 454.296H559.408C557.872 459.416 554.928 463.64 550.576 466.968C546.224 470.232 540.88 471.864 534.544 471.864C529.424 471.864 524.816 470.744 520.72 468.504C516.688 466.2 513.52 462.968 511.216 458.808C508.976 454.648 507.855 449.848 507.855 444.408C507.855 438.904 508.976 434.072 511.216 429.912C513.456 425.752 516.592 422.552 520.624 420.312C524.656 418.072 529.296 416.952 534.544 416.952C539.6 416.952 544.112 418.04 548.08 420.216C552.112 422.392 555.216 425.496 557.392 429.528C559.632 433.496 560.752 438.072 560.752 443.256ZM546.832 439.416C546.768 435.96 545.52 433.208 543.088 431.16C540.656 429.048 537.68 427.992 534.16 427.992C530.832 427.992 528.016 429.016 525.712 431.064C523.472 433.048 522.096 435.832 521.584 439.416H546.832ZM586.21 428.856V454.584C586.21 456.376 586.626 457.688 587.458 458.52C588.354 459.288 589.826 459.672 591.874 459.672H598.114V471H589.666C578.338 471 572.674 465.496 572.674 454.488V428.856H566.338V417.816H572.674V404.664H586.21V417.816H598.114V428.856H586.21ZM623.428 428.856V454.584C623.428 456.376 623.844 457.688 624.676 458.52C625.572 459.288 627.044 459.672 629.092 459.672H635.332V471H626.884C615.556 471 609.892 465.496 609.892 454.488V428.856H603.556V417.816H609.892V404.664H623.428V417.816H635.332V428.856H623.428ZM694.439 443.256C694.439 445.176 694.311 446.904 694.055 448.44H655.175C655.495 452.28 656.839 455.288 659.207 457.464C661.575 459.64 664.487 460.728 667.943 460.728C672.935 460.728 676.487 458.584 678.599 454.296H693.095C691.559 459.416 688.615 463.64 684.263 466.968C679.911 470.232 674.567 471.864 668.231 471.864C663.111 471.864 658.503 470.744 654.407 468.504C650.375 466.2 647.207 462.968 644.903 458.808C642.663 454.648 641.543 449.848 641.543 444.408C641.543 438.904 642.663 434.072 644.903 429.912C647.143 425.752 650.279 422.552 654.311 420.312C658.343 418.072 662.983 416.952 668.231 416.952C673.287 416.952 677.799 418.04 681.767 420.216C685.799 422.392 688.903 425.496 691.079 429.528C693.319 433.496 694.439 438.072 694.439 443.256ZM680.519 439.416C680.455 435.96 679.207 433.208 676.775 431.16C674.343 429.048 671.367 427.992 667.847 427.992C664.519 427.992 661.703 429.016 659.399 431.064C657.159 433.048 655.783 435.832 655.271 439.416H680.519ZM717.689 426.072C719.417 423.256 721.657 421.048 724.409 419.448C727.225 417.848 730.425 417.048 734.009 417.048V431.16H730.457C726.233 431.16 723.033 432.152 720.857 434.136C718.745 436.12 717.689 439.576 717.689 444.504V471H704.249V417.816H717.689V426.072ZM795.409 417.048C801.745 417.048 806.865 419.064 810.769 423.096C814.673 427.064 816.625 432.632 816.625 439.8V471H803.185V441.624C803.185 437.4 802.129 434.168 800.017 431.928C797.905 429.624 795.025 428.472 791.377 428.472C787.665 428.472 784.721 429.624 782.545 431.928C780.433 434.168 779.377 437.4 779.377 441.624V471H765.937V417.816H779.377V424.44C781.169 422.136 783.441 420.344 786.193 419.064C789.009 417.72 792.081 417.048 795.409 417.048ZM853.021 471.864C847.901 471.864 843.293 470.744 839.197 468.504C835.101 466.2 831.869 462.968 829.501 458.808C827.197 454.648 826.045 449.848 826.045 444.408C826.045 438.968 827.229 434.168 829.597 430.008C832.029 425.848 835.325 422.648 839.485 420.408C843.645 418.104 848.285 416.952 853.405 416.952C858.525 416.952 863.165 418.104 867.325 420.408C871.485 422.648 874.749 425.848 877.117 430.008C879.549 434.168 880.765 438.968 880.765 444.408C880.765 449.848 879.517 454.648 877.021 458.808C874.589 462.968 871.261 466.2 867.037 468.504C862.877 470.744 858.205 471.864 853.021 471.864ZM853.021 460.152C855.453 460.152 857.725 459.576 859.837 458.424C862.013 457.208 863.741 455.416 865.021 453.048C866.301 450.68 866.941 447.8 866.941 444.408C866.941 439.352 865.597 435.48 862.909 432.792C860.285 430.04 857.053 428.664 853.213 428.664C849.373 428.664 846.141 430.04 843.517 432.792C840.957 435.48 839.677 439.352 839.677 444.408C839.677 449.464 840.925 453.368 843.421 456.12C845.981 458.808 849.181 460.152 853.021 460.152ZM906.272 428.856V454.584C906.272 456.376 906.688 457.688 907.52 458.52C908.416 459.288 909.888 459.672 911.936 459.672H918.176V471H909.728C898.4 471 892.736 465.496 892.736 454.488V428.856H886.4V417.816H892.736V404.664H906.272V417.816H918.176V428.856H906.272ZM924.387 444.408C924.387 438.904 925.507 434.104 927.747 430.008C929.987 425.848 933.091 422.648 937.059 420.408C941.027 418.104 945.571 416.952 950.691 416.952C957.283 416.952 962.723 418.616 967.011 421.944C971.363 425.208 974.275 429.816 975.747 435.768H961.251C960.483 433.464 959.171 431.672 957.315 430.392C955.523 429.048 953.283 428.376 950.595 428.376C946.755 428.376 943.715 429.784 941.475 432.6C939.235 435.352 938.115 439.288 938.115 444.408C938.115 449.464 939.235 453.4 941.475 456.216C943.715 458.968 946.755 460.344 950.595 460.344C956.035 460.344 959.587 457.912 961.251 453.048H975.747C974.275 458.808 971.363 463.384 967.011 466.776C962.659 470.168 957.219 471.864 950.691 471.864C945.571 471.864 941.027 470.744 937.059 468.504C933.091 466.2 929.987 463 927.747 458.904C925.507 454.744 924.387 449.912 924.387 444.408ZM1015.54 417.048C1019.58 417.048 1023.16 417.944 1026.3 419.736C1029.43 421.464 1031.86 424.056 1033.59 427.512C1035.38 430.904 1036.28 435 1036.28 439.8V471H1022.84V441.624C1022.84 437.4 1021.78 434.168 1019.67 431.928C1017.56 429.624 1014.68 428.472 1011.03 428.472C1007.32 428.472 1004.38 429.624 1002.2 431.928C1000.09 434.168 999.033 437.4 999.033 441.624V471H985.593V399.96H999.033V424.44C1000.76 422.136 1003.06 420.344 1005.94 419.064C1008.82 417.72 1012.02 417.048 1015.54 417.048ZM1101.89 417.048C1105.92 417.048 1109.5 417.944 1112.64 419.736C1115.78 421.464 1118.21 424.056 1119.94 427.512C1121.73 430.904 1122.62 435 1122.62 439.8V471H1109.18V441.624C1109.18 437.4 1108.13 434.168 1106.02 431.928C1103.9 429.624 1101.02 428.472 1097.38 428.472C1093.66 428.472 1090.72 429.624 1088.54 431.928C1086.43 434.168 1085.38 437.4 1085.38 441.624V471H1071.94V399.96H1085.38V424.44C1087.1 422.136 1089.41 420.344 1092.29 419.064C1095.17 417.72 1098.37 417.048 1101.89 417.048ZM1131.95 444.216C1131.95 438.84 1133.01 434.072 1135.12 429.912C1137.29 425.752 1140.21 422.552 1143.85 420.312C1147.57 418.072 1151.69 416.952 1156.24 416.952C1160.21 416.952 1163.66 417.752 1166.61 419.352C1169.61 420.952 1172.01 422.968 1173.81 425.4V417.816H1187.34V471H1173.81V463.224C1172.08 465.72 1169.68 467.8 1166.61 469.464C1163.6 471.064 1160.11 471.864 1156.14 471.864C1151.66 471.864 1147.57 470.712 1143.85 468.408C1140.21 466.104 1137.29 462.872 1135.12 458.712C1133.01 454.488 1131.95 449.656 1131.95 444.216ZM1173.81 444.408C1173.81 441.144 1173.17 438.36 1171.89 436.056C1170.61 433.688 1168.88 431.896 1166.7 430.68C1164.53 429.4 1162.19 428.76 1159.69 428.76C1157.2 428.76 1154.89 429.368 1152.78 430.584C1150.67 431.8 1148.94 433.592 1147.6 435.96C1146.32 438.264 1145.68 441.016 1145.68 444.216C1145.68 447.416 1146.32 450.232 1147.6 452.664C1148.94 455.032 1150.67 456.856 1152.78 458.136C1154.96 459.416 1157.26 460.056 1159.69 460.056C1162.19 460.056 1164.53 459.448 1166.7 458.232C1168.88 456.952 1170.61 455.16 1171.89 452.856C1173.17 450.488 1173.81 447.672 1173.81 444.408ZM1229.94 417.048C1236.28 417.048 1241.4 419.064 1245.3 423.096C1249.2 427.064 1251.16 432.632 1251.16 439.8V471H1237.72V441.624C1237.72 437.4 1236.66 434.168 1234.55 431.928C1232.44 429.624 1229.56 428.472 1225.91 428.472C1222.2 428.472 1219.25 429.624 1217.08 431.928C1214.96 434.168 1213.91 437.4 1213.91 441.624V471H1200.47V417.816H1213.91V424.44C1215.7 422.136 1217.97 420.344 1220.72 419.064C1223.54 417.72 1226.61 417.048 1229.94 417.048ZM1260.48 444.216C1260.48 438.84 1261.54 434.072 1263.65 429.912C1265.82 425.752 1268.77 422.552 1272.48 420.312C1276.19 418.072 1280.32 416.952 1284.86 416.952C1288.32 416.952 1291.62 417.72 1294.75 419.256C1297.89 420.728 1300.38 422.712 1302.24 425.208V399.96H1315.87V471H1302.24V463.128C1300.58 465.752 1298.24 467.864 1295.23 469.464C1292.22 471.064 1288.74 471.864 1284.77 471.864C1280.29 471.864 1276.19 470.712 1272.48 468.408C1268.77 466.104 1265.82 462.872 1263.65 458.712C1261.54 454.488 1260.48 449.656 1260.48 444.216ZM1302.34 444.408C1302.34 441.144 1301.7 438.36 1300.42 436.056C1299.14 433.688 1297.41 431.896 1295.23 430.68C1293.06 429.4 1290.72 428.76 1288.22 428.76C1285.73 428.76 1283.42 429.368 1281.31 430.584C1279.2 431.8 1277.47 433.592 1276.13 435.96C1274.85 438.264 1274.21 441.016 1274.21 444.216C1274.21 447.416 1274.85 450.232 1276.13 452.664C1277.47 455.032 1279.2 456.856 1281.31 458.136C1283.49 459.416 1285.79 460.056 1288.22 460.056C1290.72 460.056 1293.06 459.448 1295.23 458.232C1297.41 456.952 1299.14 455.16 1300.42 452.856C1301.7 450.488 1302.34 447.672 1302.34 444.408ZM1342.44 399.96V471H1329V399.96H1342.44ZM1362.53 411.48C1360.17 411.48 1358.18 410.744 1356.58 409.272C1355.05 407.736 1354.28 405.848 1354.28 403.608C1354.28 401.368 1355.05 399.512 1356.58 398.04C1358.18 396.504 1360.17 395.736 1362.53 395.736C1364.9 395.736 1366.85 396.504 1368.39 398.04C1369.99 399.512 1370.79 401.368 1370.79 403.608C1370.79 405.848 1369.99 407.736 1368.39 409.272C1366.85 410.744 1364.9 411.48 1362.53 411.48ZM1369.16 417.816V471H1355.72V417.816H1369.16ZM1411.91 417.048C1418.24 417.048 1423.36 419.064 1427.27 423.096C1431.17 427.064 1433.12 432.632 1433.12 439.8V471H1419.68V441.624C1419.68 437.4 1418.63 434.168 1416.52 431.928C1414.4 429.624 1411.52 428.472 1407.88 428.472C1404.16 428.472 1401.22 429.624 1399.04 431.928C1396.93 434.168 1395.88 437.4 1395.88 441.624V471H1382.44V417.816H1395.88V424.44C1397.67 422.136 1399.94 420.344 1402.69 419.064C1405.51 417.72 1408.58 417.048 1411.91 417.048ZM1466.74 416.952C1470.71 416.952 1474.19 417.752 1477.2 419.352C1480.21 420.888 1482.58 422.904 1484.31 425.4V417.816H1497.84V471.384C1497.84 476.312 1496.85 480.696 1494.87 484.536C1492.88 488.44 1489.91 491.512 1485.94 493.752C1481.97 496.056 1477.17 497.208 1471.54 497.208C1463.99 497.208 1457.78 495.448 1452.91 491.928C1448.11 488.408 1445.39 483.608 1444.75 477.528H1458.1C1458.8 479.96 1460.31 481.88 1462.61 483.288C1464.98 484.76 1467.83 485.496 1471.15 485.496C1475.06 485.496 1478.23 484.312 1480.66 481.944C1483.09 479.64 1484.31 476.12 1484.31 471.384V463.128C1482.58 465.624 1480.18 467.704 1477.11 469.368C1474.1 471.032 1470.64 471.864 1466.74 471.864C1462.26 471.864 1458.16 470.712 1454.45 468.408C1450.74 466.104 1447.79 462.872 1445.62 458.712C1443.51 454.488 1442.45 449.656 1442.45 444.216C1442.45 438.84 1443.51 434.072 1445.62 429.912C1447.79 425.752 1450.71 422.552 1454.35 420.312C1458.07 418.072 1462.19 416.952 1466.74 416.952ZM1484.31 444.408C1484.31 441.144 1483.67 438.36 1482.39 436.056C1481.11 433.688 1479.38 431.896 1477.2 430.68C1475.03 429.4 1472.69 428.76 1470.19 428.76C1467.7 428.76 1465.39 429.368 1463.28 430.584C1461.17 431.8 1459.44 433.592 1458.1 435.96C1456.82 438.264 1456.18 441.016 1456.18 444.216C1456.18 447.416 1456.82 450.232 1458.1 452.664C1459.44 455.032 1461.17 456.856 1463.28 458.136C1465.46 459.416 1467.76 460.056 1470.19 460.056C1472.69 460.056 1475.03 459.448 1477.2 458.232C1479.38 456.952 1481.11 455.16 1482.39 452.856C1483.67 450.488 1484.31 447.672 1484.31 444.408Z" fill="white"/>
</svg>
