<svg width="781" height="1194" viewBox="0 0 781 1194" fill="none" xmlns="http://www.w3.org/2000/svg">
<path d="M265.004 54.1238L265.004 965.875C265.004 987.481 282.517 1005 304.12 1005H725.888C747.49 1005 765.003 987.481 765.003 965.875V54.1238C765.003 32.5163 747.49 15 725.888 15H304.12C282.517 15 265.004 32.5162 265.004 54.1238Z" stroke="black" stroke-width="30"/>
<path d="M304.119 999.895C285.334 999.895 270.106 984.664 270.106 965.875L270.105 54.1231C270.105 35.3341 285.334 20.1026 304.119 20.1026L725.887 20.1025C744.673 20.1025 759.901 35.3341 759.901 54.1231V965.875C759.901 984.664 744.673 999.895 725.887 999.895H304.119Z" fill="white"/>
<mask id="mask0" mask-type="alpha" maskUnits="userSpaceOnUse" x="270" y="20" width="490" height="980">
<path d="M304.119 999.896C285.334 999.896 270.106 984.665 270.106 965.875L270.105 54.124C270.105 35.335 285.334 20.1035 304.119 20.1035H725.887C744.673 20.1035 759.901 35.335 759.901 54.124V965.875C759.901 984.665 744.673 999.896 725.887 999.896H304.119Z" fill="white"/>
</mask>
<g mask="url(#mask0)">
<path d="M509.881 361.499C269.381 361.499 74.5078 556.413 74.5078 796.962C74.5078 1037.51 269.381 1232.43 509.881 1232.43C750.381 1232.43 945.255 1037.51 945.255 796.962C945.547 556.413 750.381 361.499 509.881 361.499ZM735.956 990.992C698.572 1055.18 619.68 1078.44 561.395 1071.67C477.796 1062.24 424.807 989.815 370.351 915.912C343.268 879.108 327.666 848.49 314.714 822.58C280.861 755.154 258.489 708.634 264.377 650.337C266.437 628.843 270.558 588.504 302.939 557.297C330.316 530.795 374.177 514.014 412.739 524.614C441.589 532.564 446.004 550.228 498.106 606.467C521.361 633.554 543.735 655.045 562.279 671.239C580.823 687.729 595.249 698.918 603.198 705.1C617.915 716.582 624.98 722.178 634.694 728.656C660.789 746.251 675.786 750.993 696.555 769.94C696.721 770.093 696.885 770.239 697.051 770.389C698.381 771.586 704.922 777.594 711.231 785.48C747.143 831.115 778.347 918.858 735.956 990.992Z" fill="black" fill-opacity="0.1"/>
</g>
<path d="M15 227.624L15 1139.38C15 1160.98 32.5127 1178.5 54.1156 1178.5H475.884C497.486 1178.5 514.999 1160.98 514.999 1139.38V227.624C514.999 206.016 497.486 188.5 475.884 188.5H54.1156C32.5126 188.5 15 206.016 15 227.624Z" stroke="black" stroke-width="30"/>
<path d="M54.1152 1173.4C35.33 1173.4 20.1016 1158.16 20.1016 1139.37L20.1016 227.623C20.1016 208.834 35.3299 193.603 54.1152 193.603L475.883 193.603C494.669 193.603 509.897 208.834 509.897 227.623V1139.37C509.897 1158.16 494.669 1173.4 475.883 1173.4H54.1152Z" fill="white"/>
<mask id="mask1" mask-type="alpha" maskUnits="userSpaceOnUse" x="20" y="193" width="490" height="981">
<path d="M54.1152 1173.4C35.33 1173.4 20.1016 1158.16 20.1016 1139.38L20.1016 227.624C20.1016 208.835 35.3299 193.604 54.1152 193.604H475.883C494.669 193.604 509.897 208.835 509.897 227.624V1139.38C509.897 1158.16 494.669 1173.4 475.883 1173.4H54.1152Z" fill="white"/>
</mask>
<g mask="url(#mask1)">
<path d="M509.897 361.665C269.396 361.665 74.5234 556.579 74.5234 797.128C74.5234 1037.68 269.396 1232.59 509.897 1232.59C750.397 1232.59 945.271 1037.68 945.271 797.128C945.563 556.579 750.397 361.665 509.897 361.665ZM735.971 991.158C698.587 1055.34 619.696 1078.6 561.411 1071.83C477.812 1062.41 424.822 989.981 370.367 916.078C343.283 879.274 327.682 848.656 314.73 822.746C280.877 755.32 258.505 708.8 264.392 650.503C266.453 629.009 270.574 588.67 302.955 557.463C330.331 530.961 374.193 514.18 412.754 524.78C441.605 532.73 446.02 550.394 498.122 606.633C521.377 633.72 543.751 655.211 562.295 671.405C580.839 687.895 595.264 699.084 603.213 705.266C617.931 716.748 624.995 722.344 634.71 728.822C660.805 746.417 675.802 751.159 696.57 770.106C696.737 770.259 696.9 770.405 697.067 770.555C698.397 771.752 704.938 777.76 711.247 785.646C747.159 831.281 778.363 919.024 735.971 991.158Z" fill="black" fill-opacity="0.1"/>
</g>
<path d="M134.576 357.323V435.499H118.896V402.235H85.408V435.499H69.728V357.323H85.408V389.467H118.896V357.323H134.576ZM207.689 403.131C207.689 405.371 207.54 407.387 207.241 409.179H161.881C162.255 413.659 163.823 417.168 166.585 419.707C169.348 422.246 172.745 423.515 176.777 423.515C182.601 423.515 186.745 421.014 189.209 416.011H206.121C204.329 421.984 200.895 426.912 195.817 430.795C190.74 434.603 184.505 436.507 177.113 436.507C171.14 436.507 165.764 435.2 160.985 432.587C156.281 429.899 152.585 426.128 149.897 421.275C147.284 416.422 145.977 410.822 145.977 404.475C145.977 398.054 147.284 392.416 149.897 387.563C152.511 382.71 156.169 378.976 160.873 376.363C165.577 373.75 170.991 372.443 177.113 372.443C183.012 372.443 188.276 373.712 192.905 376.251C197.609 378.79 201.231 382.411 203.769 387.115C206.383 391.744 207.689 397.083 207.689 403.131ZM191.449 398.651C191.375 394.619 189.919 391.408 187.081 389.019C184.244 386.555 180.772 385.323 176.665 385.323C172.783 385.323 169.497 386.518 166.809 388.907C164.196 391.222 162.591 394.47 161.993 398.651H191.449ZM234.814 352.619V435.499H219.134V352.619H234.814ZM265.986 352.619V435.499H250.306V352.619H265.986ZM309.03 436.507C303.057 436.507 297.681 435.2 292.902 432.587C288.123 429.899 284.353 426.128 281.59 421.275C278.902 416.422 277.558 410.822 277.558 404.475C277.558 398.128 278.939 392.528 281.702 387.675C284.539 382.822 288.385 379.088 293.238 376.475C298.091 373.787 303.505 372.443 309.478 372.443C315.451 372.443 320.865 373.787 325.718 376.475C330.571 379.088 334.379 382.822 337.142 387.675C339.979 392.528 341.398 398.128 341.398 404.475C341.398 410.822 339.942 416.422 337.03 421.275C334.193 426.128 330.31 429.899 325.382 432.587C320.529 435.2 315.078 436.507 309.03 436.507ZM309.03 422.843C311.867 422.843 314.518 422.171 316.982 420.827C319.521 419.408 321.537 417.318 323.03 414.555C324.523 411.792 325.27 408.432 325.27 404.475C325.27 398.576 323.702 394.059 320.566 390.923C317.505 387.712 313.734 386.107 309.254 386.107C304.774 386.107 301.003 387.712 297.942 390.923C294.955 394.059 293.462 398.576 293.462 404.475C293.462 410.374 294.918 414.928 297.83 418.139C300.817 421.275 304.55 422.843 309.03 422.843Z" fill="#4285F4"/>
<path d="M370.036 419.035L356.932 450.507H346.852L354.132 419.035H370.036Z" fill="#0F9D58"/>
<path d="M142.352 501.315L126.8 554.499H112.304L102.608 517.347L92.912 554.499H78.32L62.672 501.315H76.304L85.712 541.827L95.888 501.315H110.096L120.08 541.731L129.488 501.315H142.352ZM173.24 555.363C168.12 555.363 163.512 554.243 159.416 552.003C155.32 549.699 152.088 546.467 149.72 542.307C147.416 538.147 146.264 533.347 146.264 527.907C146.264 522.467 147.448 517.667 149.816 513.507C152.248 509.347 155.544 506.147 159.704 503.907C163.864 501.603 168.504 500.451 173.624 500.451C178.744 500.451 183.384 501.603 187.544 503.907C191.704 506.147 194.968 509.347 197.336 513.507C199.768 517.667 200.984 522.467 200.984 527.907C200.984 533.347 199.736 538.147 197.24 542.307C194.808 546.467 191.48 549.699 187.256 552.003C183.096 554.243 178.424 555.363 173.24 555.363ZM173.24 543.651C175.672 543.651 177.944 543.075 180.056 541.923C182.232 540.707 183.96 538.915 185.24 536.547C186.52 534.179 187.16 531.299 187.16 527.907C187.16 522.851 185.816 518.979 183.128 516.291C180.504 513.539 177.272 512.163 173.432 512.163C169.592 512.163 166.36 513.539 163.736 516.291C161.176 518.979 159.896 522.851 159.896 527.907C159.896 532.963 161.144 536.867 163.64 539.619C166.2 542.307 169.4 543.651 173.24 543.651ZM224.283 509.571C226.011 506.755 228.251 504.547 231.003 502.947C233.819 501.347 237.019 500.547 240.603 500.547V514.659H237.051C232.827 514.659 229.627 515.651 227.451 517.635C225.339 519.619 224.283 523.075 224.283 528.003V554.499H210.843V501.315H224.283V509.571ZM263.095 483.459V554.499H249.655V483.459H263.095ZM272.918 527.715C272.918 522.339 273.974 517.571 276.086 513.411C278.262 509.251 281.206 506.051 284.918 503.811C288.63 501.571 292.758 500.451 297.302 500.451C300.758 500.451 304.054 501.219 307.19 502.755C310.326 504.227 312.822 506.211 314.678 508.707V483.459H328.31V554.499H314.678V546.627C313.014 549.251 310.678 551.363 307.67 552.963C304.662 554.563 301.174 555.363 297.206 555.363C292.726 555.363 288.63 554.211 284.918 551.907C281.206 549.603 278.262 546.371 276.086 542.211C273.974 537.987 272.918 533.155 272.918 527.715ZM314.774 527.907C314.774 524.643 314.134 521.859 312.854 519.555C311.574 517.187 309.846 515.395 307.67 514.179C305.494 512.899 303.158 512.259 300.662 512.259C298.166 512.259 295.862 512.867 293.75 514.083C291.638 515.299 289.91 517.091 288.566 519.459C287.286 521.763 286.646 524.515 286.646 527.715C286.646 530.915 287.286 533.731 288.566 536.163C289.91 538.531 291.638 540.355 293.75 541.635C295.926 542.915 298.23 543.555 300.662 543.555C303.158 543.555 305.494 542.947 307.67 541.731C309.846 540.451 311.574 538.659 312.854 536.355C314.134 533.987 314.774 531.171 314.774 527.907Z" fill="#F4B400"/>
<path d="M347.389 555.171C344.957 555.171 342.941 554.435 341.341 552.963C339.805 551.427 339.037 549.539 339.037 547.299C339.037 545.059 339.805 543.203 341.341 541.731C342.941 540.195 344.957 539.427 347.389 539.427C349.757 539.427 351.709 540.195 353.245 541.731C354.781 543.203 355.549 545.059 355.549 547.299C355.549 549.539 354.781 551.427 353.245 552.963C351.709 554.435 349.757 555.171 347.389 555.171Z" fill="#DB4437"/>
</svg>
