<svg width="1530" height="2357" viewBox="0 0 1530 2357" fill="none" xmlns="http://www.w3.org/2000/svg">
<path d="M515 93.2476L515 1916.75C515 1959.97 550.025 1995 593.231 1995H1436.77C1479.97 1995 1515 1959.97 1515 1916.75V93.2476C1515 50.0326 1479.97 15 1436.77 15H593.231C550.025 15 515 50.0325 515 93.2476Z" stroke="black" stroke-width="30"/>
<path d="M593.23 1984.79C555.66 1984.79 525.203 1954.33 525.203 1916.75L525.203 93.2464C525.203 55.6682 555.66 25.2051 593.23 25.2051L1436.77 25.2051C1474.34 25.2051 1504.79 55.6682 1504.79 93.2464V1916.75C1504.79 1954.33 1474.34 1984.79 1436.77 1984.79H593.23Z" fill="white"/>
<mask id="mask0" mask-type="alpha" maskUnits="userSpaceOnUse" x="525" y="25" width="980" height="1960">
<path d="M593.23 1984.79C555.66 1984.79 525.203 1954.33 525.203 1916.75L525.203 93.2481C525.203 55.6701 555.66 25.207 593.23 25.207H1436.77C1474.34 25.207 1504.79 55.6701 1504.79 93.2481V1916.75C1504.79 1954.33 1474.34 1984.79 1436.77 1984.79H593.23Z" fill="white"/>
</mask>
<g mask="url(#mask0)">
<path d="M1004.75 708C523.746 708 134 1097.83 134 1578.93C134 2060.03 523.746 2449.86 1004.75 2449.86C1485.75 2449.86 1875.5 2060.03 1875.5 1578.93C1876.08 1097.83 1485.75 708 1004.75 708ZM1456.9 1966.99C1382.13 2095.36 1224.35 2141.88 1107.78 2128.34C940.578 2109.49 834.599 1964.63 725.687 1816.83C671.52 1743.22 640.317 1681.98 614.413 1630.16C546.707 1495.31 501.963 1402.27 513.738 1285.68C517.859 1242.69 526.101 1162.01 590.863 1099.6C645.616 1046.59 733.34 1013.03 810.463 1034.23C868.163 1050.13 876.993 1085.46 981.197 1197.94C1027.71 1252.11 1072.46 1295.09 1109.54 1327.48C1146.63 1360.46 1175.48 1382.84 1191.38 1395.2C1220.82 1418.17 1234.95 1429.36 1254.37 1442.31C1306.56 1477.5 1336.56 1486.99 1378.1 1524.88C1378.43 1525.19 1378.76 1525.48 1379.09 1525.78C1381.75 1528.18 1394.83 1540.19 1407.45 1555.96C1479.27 1647.23 1541.68 1822.72 1456.9 1966.99Z" fill="black" fill-opacity="0.1"/>
</g>
<path d="M15 440.248L15.0001 2263.75C15.0001 2306.97 50.0254 2342 93.2314 2342H936.769C979.973 2342 1015 2306.97 1015 2263.75V440.248C1015 397.033 979.973 362 936.769 362H93.2314C50.0253 362 15 397.032 15 440.248Z" stroke="black" stroke-width="30"/>
<path d="M93.2304 2331.79C55.66 2331.79 25.2032 2301.33 25.2032 2263.75L25.2031 440.247C25.2031 402.669 55.6599 372.206 93.2304 372.206L936.768 372.206C974.339 372.206 1004.79 402.669 1004.79 440.247V2263.75C1004.79 2301.33 974.339 2331.79 936.768 2331.79H93.2304Z" fill="white"/>
<mask id="mask1" mask-type="alpha" maskUnits="userSpaceOnUse" x="25" y="372" width="980" height="1960">
<path d="M93.2304 2331.79C55.66 2331.79 25.2032 2301.33 25.2032 2263.75L25.2031 440.248C25.2031 402.67 55.6599 372.207 93.2304 372.207H936.768C974.339 372.207 1004.79 402.67 1004.79 440.248V2263.75C1004.79 2301.33 974.339 2331.79 936.768 2331.79H93.2304Z" fill="white"/>
</mask>
<g mask="url(#mask1)">
<path d="M1004.8 708.33C523.793 708.33 134.047 1098.16 134.047 1579.26C134.047 2060.36 523.793 2450.19 1004.8 2450.19C1485.8 2450.19 1875.54 2060.36 1875.54 1579.26C1876.13 1098.16 1485.8 708.33 1004.8 708.33ZM1456.94 1967.32C1382.18 2095.69 1224.39 2142.21 1107.82 2128.67C940.625 2109.82 834.646 1964.96 725.734 1817.16C671.567 1743.55 640.364 1682.31 614.46 1630.49C546.754 1495.64 502.01 1402.6 513.785 1286.01C517.906 1243.02 526.148 1162.34 590.91 1099.93C645.663 1046.92 733.387 1013.36 810.509 1034.56C868.21 1050.46 877.04 1085.79 981.244 1198.27C1027.75 1252.44 1072.5 1295.42 1109.59 1327.81C1146.68 1360.79 1175.53 1383.17 1191.43 1395.53C1220.86 1418.5 1234.99 1429.69 1254.42 1442.64C1306.61 1477.84 1336.6 1487.32 1378.14 1525.21C1378.48 1525.52 1378.8 1525.81 1379.14 1526.11C1381.8 1528.51 1394.88 1540.52 1407.5 1556.29C1479.32 1647.56 1541.73 1823.05 1456.94 1967.32Z" fill="black" fill-opacity="0.1"/>
</g>
<path d="M181.576 668.824V747H165.896V713.736H132.408V747H116.728V668.824H132.408V700.968H165.896V668.824H181.576ZM254.689 714.632C254.689 716.872 254.54 718.888 254.241 720.68H208.881C209.255 725.16 210.823 728.669 213.585 731.208C216.348 733.747 219.745 735.016 223.777 735.016C229.601 735.016 233.745 732.515 236.209 727.512H253.121C251.329 733.485 247.895 738.413 242.817 742.296C237.74 746.104 231.505 748.008 224.113 748.008C218.14 748.008 212.764 746.701 207.985 744.088C203.281 741.4 199.585 737.629 196.897 732.776C194.284 727.923 192.977 722.323 192.977 715.976C192.977 709.555 194.284 703.917 196.897 699.064C199.511 694.211 203.169 690.477 207.873 687.864C212.577 685.251 217.991 683.944 224.113 683.944C230.012 683.944 235.276 685.213 239.905 687.752C244.609 690.291 248.231 693.912 250.769 698.616C253.383 703.245 254.689 708.584 254.689 714.632ZM238.449 710.152C238.375 706.12 236.919 702.909 234.081 700.52C231.244 698.056 227.772 696.824 223.665 696.824C219.783 696.824 216.497 698.019 213.809 700.408C211.196 702.723 209.591 705.971 208.993 710.152H238.449ZM281.814 664.12V747H266.134V664.12H281.814ZM312.986 664.12V747H297.306V664.12H312.986ZM356.03 748.008C350.057 748.008 344.681 746.701 339.902 744.088C335.123 741.4 331.353 737.629 328.59 732.776C325.902 727.923 324.558 722.323 324.558 715.976C324.558 709.629 325.939 704.029 328.702 699.176C331.539 694.323 335.385 690.589 340.238 687.976C345.091 685.288 350.505 683.944 356.478 683.944C362.451 683.944 367.865 685.288 372.718 687.976C377.571 690.589 381.379 694.323 384.142 699.176C386.979 704.029 388.398 709.629 388.398 715.976C388.398 722.323 386.942 727.923 384.03 732.776C381.193 737.629 377.31 741.4 372.382 744.088C367.529 746.701 362.078 748.008 356.03 748.008ZM356.03 734.344C358.867 734.344 361.518 733.672 363.982 732.328C366.521 730.909 368.537 728.819 370.03 726.056C371.523 723.293 372.27 719.933 372.27 715.976C372.27 710.077 370.702 705.56 367.566 702.424C364.505 699.213 360.734 697.608 356.254 697.608C351.774 697.608 348.003 699.213 344.942 702.424C341.955 705.56 340.462 710.077 340.462 715.976C340.462 721.875 341.918 726.429 344.83 729.64C347.817 732.776 351.55 734.344 356.03 734.344Z" fill="#4285F4"/>
<path d="M417.036 730.536L403.932 762.008H393.852L401.132 730.536H417.036Z" fill="#0F9D58"/>
<path d="M189.352 812.816L173.8 866H159.304L149.608 828.848L139.912 866H125.32L109.672 812.816H123.304L132.712 853.328L142.888 812.816H157.096L167.08 853.232L176.488 812.816H189.352ZM220.24 866.864C215.12 866.864 210.512 865.744 206.416 863.504C202.32 861.2 199.088 857.968 196.72 853.808C194.416 849.648 193.264 844.848 193.264 839.408C193.264 833.968 194.448 829.168 196.816 825.008C199.248 820.848 202.544 817.648 206.704 815.408C210.864 813.104 215.504 811.952 220.624 811.952C225.744 811.952 230.384 813.104 234.544 815.408C238.704 817.648 241.968 820.848 244.336 825.008C246.768 829.168 247.984 833.968 247.984 839.408C247.984 844.848 246.736 849.648 244.24 853.808C241.808 857.968 238.48 861.2 234.256 863.504C230.096 865.744 225.424 866.864 220.24 866.864ZM220.24 855.152C222.672 855.152 224.944 854.576 227.056 853.424C229.232 852.208 230.96 850.416 232.24 848.048C233.52 845.68 234.16 842.8 234.16 839.408C234.16 834.352 232.816 830.48 230.128 827.792C227.504 825.04 224.272 823.664 220.432 823.664C216.592 823.664 213.36 825.04 210.736 827.792C208.176 830.48 206.896 834.352 206.896 839.408C206.896 844.464 208.144 848.368 210.64 851.12C213.2 853.808 216.4 855.152 220.24 855.152ZM271.283 821.072C273.011 818.256 275.251 816.048 278.003 814.448C280.819 812.848 284.019 812.048 287.603 812.048V826.16H284.051C279.827 826.16 276.627 827.152 274.451 829.136C272.339 831.12 271.283 834.576 271.283 839.504V866H257.843V812.816H271.283V821.072ZM310.095 794.96V866H296.655V794.96H310.095ZM319.918 839.216C319.918 833.84 320.974 829.072 323.086 824.912C325.262 820.752 328.206 817.552 331.918 815.312C335.63 813.072 339.758 811.952 344.302 811.952C347.758 811.952 351.054 812.72 354.19 814.256C357.326 815.728 359.822 817.712 361.678 820.208V794.96H375.31V866H361.678V858.128C360.014 860.752 357.678 862.864 354.67 864.464C351.662 866.064 348.174 866.864 344.206 866.864C339.726 866.864 335.63 865.712 331.918 863.408C328.206 861.104 325.262 857.872 323.086 853.712C320.974 849.488 319.918 844.656 319.918 839.216ZM361.774 839.408C361.774 836.144 361.134 833.36 359.854 831.056C358.574 828.688 356.846 826.896 354.67 825.68C352.494 824.4 350.158 823.76 347.662 823.76C345.166 823.76 342.862 824.368 340.75 825.584C338.638 826.8 336.91 828.592 335.566 830.96C334.286 833.264 333.646 836.016 333.646 839.216C333.646 842.416 334.286 845.232 335.566 847.664C336.91 850.032 338.638 851.856 340.75 853.136C342.926 854.416 345.23 855.056 347.662 855.056C350.158 855.056 352.494 854.448 354.67 853.232C356.846 851.952 358.574 850.16 359.854 847.856C361.134 845.488 361.774 842.672 361.774 839.408Z" fill="#F4B400"/>
<path d="M394.389 866.672C391.957 866.672 389.941 865.936 388.341 864.464C386.805 862.928 386.037 861.04 386.037 858.8C386.037 856.56 386.805 854.704 388.341 853.232C389.941 851.696 391.957 850.928 394.389 850.928C396.757 850.928 398.709 851.696 400.245 853.232C401.781 854.704 402.549 856.56 402.549 858.8C402.549 861.04 401.781 862.928 400.245 864.464C398.709 865.936 396.757 866.672 394.389 866.672Z" fill="#DB4437"/>
<mask id="mask2" mask-type="alpha" maskUnits="userSpaceOnUse" x="525" y="25" width="980" height="1960">
<path d="M593.23 1984.79C555.66 1984.79 525.203 1954.33 525.203 1916.75L525.203 93.2483C525.203 55.6702 555.66 25.2071 593.23 25.2071L1436.77 25.207C1474.34 25.207 1504.79 55.6702 1504.79 93.2483V1916.75C1504.79 1954.33 1474.34 1984.79 1436.77 1984.79H593.23Z" fill="white"/>
</mask>
<g mask="url(#mask2)">
<path d="M1254.64 83.6079C1265.07 89.6337 1278.6 86.0098 1284.62 75.5724L1330.36 -3.64045C1336.38 -14.0779 1332.76 -27.6013 1322.32 -33.6271C1311.88 -39.653 1298.36 -36.0291 1292.33 -25.5917L1246.6 53.6212C1240.52 64.1518 1244.2 77.582 1254.64 83.6079ZM1476.42 211.657C1486.86 217.682 1500.38 214.059 1506.41 203.621L1552.14 124.408C1558.17 113.971 1554.55 100.447 1544.11 94.4216C1533.67 88.3958 1520.15 92.0197 1514.12 102.457L1468.39 181.67C1462.31 192.201 1465.99 205.631 1476.42 211.657ZM1282.61 95.4107L1353.58 -27.509C1360.14 -38.8784 1374.55 -42.7385 1385.92 -36.1747L1399.52 -28.3196L1423.73 -70.2558C1429.76 -80.6932 1443.28 -84.3171 1453.72 -78.2913C1464.16 -72.2654 1467.78 -58.742 1461.76 -48.3046L1437.54 -6.36835L1462.89 8.26579L1487.1 -33.6704C1493.13 -44.1079 1506.65 -47.7317 1517.09 -41.7059C1527.53 -35.6801 1531.15 -22.1567 1525.12 -11.7192L1500.91 30.217L1514.52 38.0721C1525.89 44.636 1529.74 59.0413 1523.18 70.4107L1452.21 193.33L1282.61 95.4107ZM1282.65 195.208L1255.24 211.69C1253.74 212.564 1253.24 214.511 1254.16 215.916C1254.43 216.318 1254.79 216.773 1255.25 217.042C1256.19 217.58 1257.39 217.652 1258.39 216.989L1286.09 200.428C1294.33 211.77 1305.2 221.775 1318.34 229.361C1331.48 236.947 1345.58 241.361 1359.52 242.824L1358.94 275.042C1358.93 276.777 1360.25 278.158 1361.98 278.165C1363.72 278.173 1365.1 276.858 1365.11 275.123L1365.68 243.145C1399.24 244.629 1431.26 229.195 1448.25 199.986L1278.64 102.067C1261.84 131.383 1264.58 166.885 1282.65 195.208ZM1384.76 204.71C1388.67 206.97 1390.01 211.967 1387.75 215.881C1385.49 219.796 1380.5 221.135 1376.58 218.875C1372.67 216.615 1371.33 211.618 1373.59 207.704C1375.85 203.79 1380.85 202.45 1384.76 204.71ZM1306.48 159.516C1310.4 161.776 1311.74 166.774 1309.48 170.688C1307.22 174.602 1302.22 175.941 1298.3 173.681C1294.39 171.422 1293.05 166.424 1295.31 162.51C1297.57 158.596 1302.57 157.257 1306.48 159.516Z" fill="#0F9D58"/>
</g>
</svg>
