<svg width="96" height="96" viewBox="0 0 96 96" fill="none" xmlns="http://www.w3.org/2000/svg">
<path d="M48 0C21.4848 0 0 21.4848 0 48C0 74.5152 21.4848 96 48 96C74.5152 96 96 74.5152 96 48C96.0324 21.4848 74.5152 0 48 0ZM72.9249 69.3874C68.8032 76.4625 60.1054 79.0263 53.6795 78.2799C44.4625 77.2414 38.6207 69.2576 32.6166 61.1115C29.6308 57.0547 27.9107 53.6795 26.4827 50.8235C22.7505 43.3915 20.284 38.2637 20.9331 31.8377C21.1602 29.4685 21.6146 25.0223 25.1846 21.5821C28.2028 18.6613 33.0385 16.8114 37.29 17.9797C40.4706 18.856 40.9574 20.8032 46.7018 27.002C49.2657 29.9878 51.7322 32.357 53.7769 34.142C55.8215 35.9594 57.4117 37.1927 58.288 37.8742C59.9107 39.1399 60.6896 39.7566 61.7606 40.4706C64.6491 42.4178 66.3042 42.9371 68.6085 45.0466C68.6085 45.0466 69.4198 45.7606 70.1988 46.7343C74.1582 51.7647 77.5983 61.4361 72.9249 69.3874Z" fill="black"/>
</svg>
