<svg width="352" height="100" viewBox="0 0 352 100" fill="none" xmlns="http://www.w3.org/2000/svg">
<path d="M71.1897 31.6084C71.1897 36.8299 69.9284 41.725 67.4109 46.2937C64.9867 50.8625 61.1199 54.5455 55.8052 57.3427C50.5838 60.1399 43.9625 61.5385 35.9439 61.5385H19.5806V99.0209H0V1.3986H35.9439C43.4963 1.3986 49.929 2.70398 55.2437 5.3147C60.5584 7.92543 64.5232 11.5152 67.1339 16.0839C69.8379 20.6527 71.1897 25.8275 71.1897 31.6084ZM35.1054 45.7343C40.5133 45.7343 44.5215 44.5222 47.1322 42.0979C49.743 39.5804 51.0476 36.0839 51.0476 31.6084C51.0476 22.0979 45.7348 17.3427 35.1054 17.3427H19.5806V45.7343H35.1054Z" fill="black"/>
<path d="M228.608 99.9999C221.802 99.9999 215.648 98.8344 210.147 96.5034C204.739 94.1724 200.452 90.8158 197.282 86.4335C194.111 82.0512 192.477 76.8764 192.384 70.9091H213.364C213.644 74.9184 215.043 78.0885 217.56 80.4195C220.171 82.7505 223.715 83.9161 228.191 83.9161C232.76 83.9161 236.347 82.8438 238.958 80.6993C241.569 78.4615 242.874 75.5711 242.874 72.028C242.874 69.1375 241.989 66.7599 240.218 64.8951C238.446 63.0303 236.206 61.5851 233.502 60.5594C230.892 59.4406 227.257 58.2285 222.595 56.9231C216.255 55.0583 211.079 53.2401 207.07 51.4686C203.154 49.6037 199.751 46.8532 196.86 43.2168C194.063 39.4872 192.664 34.5455 192.664 28.3916C192.664 22.6107 194.11 17.5758 197.001 13.2867C199.891 8.99767 203.947 5.73427 209.168 3.49651C214.39 1.16551 220.358 0 227.072 0C237.142 0 245.299 2.47085 251.546 7.41258C257.887 12.2611 261.384 19.0676 262.037 27.8322H240.499C240.312 24.4755 238.866 21.725 236.162 19.5804C233.551 17.3427 230.054 16.2238 225.672 16.2238C221.849 16.2238 218.772 17.2028 216.441 19.1609C214.203 21.1189 213.083 23.9627 213.083 27.6923C213.083 30.303 213.924 32.4942 215.603 34.2657C217.374 35.9441 219.52 37.3427 222.037 38.4616C224.648 39.4872 228.283 40.6993 232.945 42.0979C239.285 43.9627 244.46 45.8275 248.47 47.6923C252.479 49.5571 255.929 52.3543 258.819 56.0839C261.71 59.8135 263.156 64.7086 263.156 70.7692C263.156 75.9907 261.804 80.8391 259.1 85.3147C256.396 89.7902 252.431 93.3799 247.21 96.0839C241.989 98.6946 235.788 99.9999 228.608 99.9999Z" fill="black"/>
<path d="M351.32 31.6084C351.32 36.8299 350.059 41.725 347.541 46.2937C345.117 50.8625 341.25 54.5455 335.935 57.3427C330.714 60.1399 324.093 61.5385 316.074 61.5385H299.711V99.0209H280.13V1.3986H316.074C323.626 1.3986 330.059 2.70398 335.374 5.3147C340.689 7.92543 344.653 11.5152 347.264 16.0839C349.968 20.6527 351.32 25.8275 351.32 31.6084ZM315.236 45.7343C320.643 45.7343 324.652 44.5222 327.262 42.0979C329.873 39.5804 331.178 36.0839 331.178 31.6084C331.178 22.0979 325.865 17.3427 315.236 17.3427H299.711V45.7343H315.236Z" fill="black"/>
<path d="M130.337 0C102.717 0 80.3369 22.38 80.3369 50C80.3369 77.62 102.717 100 130.337 100C157.957 100 180.338 77.62 180.338 50C180.372 22.38 157.957 0 130.337 0ZM156.299 72.2786C152.006 79.6484 142.946 82.3191 136.252 81.5416C126.651 80.4598 120.566 72.1433 114.312 63.6579C111.202 59.432 109.41 55.9162 107.923 52.9412C104.035 45.1995 101.465 39.858 102.141 33.1643C102.377 30.6964 102.853 26.0649 106.572 22.4814C109.716 19.4388 114.751 17.5118 119.179 18.7289C122.492 19.6417 122.999 21.67 128.983 28.1271C131.654 31.2373 134.225 33.7052 136.355 35.5646C138.484 37.4577 140.143 38.7424 141.055 39.4523C142.746 40.7708 143.555 41.4131 144.671 42.1569C147.68 44.1853 149.403 44.7262 151.804 46.9236C151.804 46.9236 152.65 47.6673 153.461 48.6815C157.586 53.9216 161.168 63.996 156.299 72.2786Z" fill="black"/>
</svg>
