<svg width="2000" height="1000" viewBox="0 0 2000 1000" fill="none" xmlns="http://www.w3.org/2000/svg">
<path d="M744.048 457.992C751.088 457.992 757.264 459.368 762.576 462.12C767.952 464.872 772.08 468.808 774.96 473.928C777.904 478.984 779.376 484.872 779.376 491.592C779.376 498.312 777.904 504.2 774.96 509.256C772.08 514.248 767.952 518.12 762.576 520.872C757.264 523.624 751.088 525 744.048 525H720.624V457.992H744.048ZM743.568 513.576C750.608 513.576 756.048 511.656 759.888 507.816C763.728 503.976 765.648 498.568 765.648 491.592C765.648 484.616 763.728 479.176 759.888 475.272C756.048 471.304 750.608 469.32 743.568 469.32H734.064V513.576H743.568ZM785.98 498.216C785.98 492.84 787.036 488.072 789.148 483.912C791.325 479.752 794.237 476.552 797.885 474.312C801.597 472.072 805.725 470.952 810.269 470.952C814.237 470.952 817.693 471.752 820.637 473.352C823.645 474.952 826.045 476.968 827.837 479.4V471.816H841.373V525H827.837V517.224C826.109 519.72 823.709 521.8 820.637 523.464C817.629 525.064 814.141 525.864 810.173 525.864C805.693 525.864 801.597 524.712 797.885 522.408C794.237 520.104 791.325 516.872 789.148 512.712C787.036 508.488 785.98 503.656 785.98 498.216ZM827.837 498.408C827.837 495.144 827.197 492.36 825.917 490.056C824.637 487.688 822.909 485.896 820.733 484.68C818.557 483.4 816.221 482.76 813.725 482.76C811.229 482.76 808.925 483.368 806.812 484.584C804.701 485.8 802.973 487.592 801.629 489.96C800.349 492.264 799.709 495.016 799.709 498.216C799.709 501.416 800.349 504.232 801.629 506.664C802.973 509.032 804.701 510.856 806.812 512.136C808.989 513.416 811.293 514.056 813.725 514.056C816.221 514.056 818.557 513.448 820.733 512.232C822.909 510.952 824.637 509.16 825.917 506.856C827.197 504.488 827.837 501.672 827.837 498.408ZM867.939 480.072C869.667 477.256 871.907 475.048 874.659 473.448C877.475 471.848 880.675 471.048 884.259 471.048V485.16H880.707C876.483 485.16 873.283 486.152 871.107 488.136C868.995 490.12 867.939 493.576 867.939 498.504V525H854.499V471.816H867.939V480.072ZM924.8 525L906.752 502.344V525H893.312V453.96H906.752V494.376L924.608 471.816H942.08L918.656 498.504L942.272 525H924.8Z" fill="black"/>
<path d="M987.897 482.856V508.584C987.897 510.376 988.313 511.688 989.145 512.52C990.041 513.288 991.513 513.672 993.561 513.672H999.801V525H991.353C980.025 525 974.361 519.496 974.361 508.488V482.856H968.025V471.816H974.361V458.664H987.897V471.816H999.801V482.856H987.897ZM1039.42 471.048C1043.45 471.048 1047.04 471.944 1050.17 473.736C1053.31 475.464 1055.74 478.056 1057.47 481.512C1059.26 484.904 1060.16 489 1060.16 493.8V525H1046.72V495.624C1046.72 491.4 1045.66 488.168 1043.55 485.928C1041.44 483.624 1038.56 482.472 1034.91 482.472C1031.2 482.472 1028.25 483.624 1026.08 485.928C1023.96 488.168 1022.91 491.4 1022.91 495.624V525H1009.47V453.96H1022.91V478.44C1024.64 476.136 1026.94 474.344 1029.82 473.064C1032.7 471.72 1035.9 471.048 1039.42 471.048ZM1122.38 497.256C1122.38 499.176 1122.25 500.904 1121.99 502.44H1083.11C1083.43 506.28 1084.78 509.288 1087.14 511.464C1089.51 513.64 1092.42 514.728 1095.88 514.728C1100.87 514.728 1104.42 512.584 1106.54 508.296H1121.03C1119.5 513.416 1116.55 517.64 1112.2 520.968C1107.85 524.232 1102.5 525.864 1096.17 525.864C1091.05 525.864 1086.44 524.744 1082.34 522.504C1078.31 520.2 1075.14 516.968 1072.84 512.808C1070.6 508.648 1069.48 503.848 1069.48 498.408C1069.48 492.904 1070.6 488.072 1072.84 483.912C1075.08 479.752 1078.22 476.552 1082.25 474.312C1086.28 472.072 1090.92 470.952 1096.17 470.952C1101.22 470.952 1105.74 472.04 1109.7 474.216C1113.74 476.392 1116.84 479.496 1119.02 483.528C1121.26 487.496 1122.38 492.072 1122.38 497.256ZM1108.46 493.416C1108.39 489.96 1107.14 487.208 1104.71 485.16C1102.28 483.048 1099.3 481.992 1095.78 481.992C1092.46 481.992 1089.64 483.016 1087.34 485.064C1085.1 487.048 1083.72 489.832 1083.21 493.416H1108.46ZM1198.23 471.048C1204.76 471.048 1210.01 473.064 1213.98 477.096C1218.01 481.064 1220.03 486.632 1220.03 493.8V525H1206.59V495.624C1206.59 491.464 1205.53 488.296 1203.42 486.12C1201.31 483.88 1198.43 482.76 1194.78 482.76C1191.13 482.76 1188.22 483.88 1186.04 486.12C1183.93 488.296 1182.87 491.464 1182.87 495.624V525H1169.43V495.624C1169.43 491.464 1168.38 488.296 1166.27 486.12C1164.15 483.88 1161.27 482.76 1157.63 482.76C1153.91 482.76 1150.97 483.88 1148.79 486.12C1146.68 488.296 1145.63 491.464 1145.63 495.624V525H1132.19V471.816H1145.63V478.248C1147.35 476.008 1149.56 474.248 1152.25 472.968C1155 471.688 1158.01 471.048 1161.27 471.048C1165.43 471.048 1169.15 471.944 1172.41 473.736C1175.67 475.464 1178.2 477.96 1179.99 481.224C1181.72 478.152 1184.22 475.688 1187.48 473.832C1190.81 471.976 1194.39 471.048 1198.23 471.048ZM1282.22 497.256C1282.22 499.176 1282.09 500.904 1281.84 502.44H1242.96C1243.28 506.28 1244.62 509.288 1246.99 511.464C1249.36 513.64 1252.27 514.728 1255.72 514.728C1260.72 514.728 1264.27 512.584 1266.38 508.296H1280.88C1279.34 513.416 1276.4 517.64 1272.04 520.968C1267.69 524.232 1262.35 525.864 1256.01 525.864C1250.89 525.864 1246.28 524.744 1242.19 522.504C1238.16 520.2 1234.99 516.968 1232.68 512.808C1230.44 508.648 1229.32 503.848 1229.32 498.408C1229.32 492.904 1230.44 488.072 1232.68 483.912C1234.92 479.752 1238.06 476.552 1242.09 474.312C1246.12 472.072 1250.76 470.952 1256.01 470.952C1261.07 470.952 1265.58 472.04 1269.55 474.216C1273.58 476.392 1276.68 479.496 1278.86 483.528C1281.1 487.496 1282.22 492.072 1282.22 497.256ZM1268.3 493.416C1268.24 489.96 1266.99 487.208 1264.56 485.16C1262.12 483.048 1259.15 481.992 1255.63 481.992C1252.3 481.992 1249.48 483.016 1247.18 485.064C1244.94 487.048 1243.56 489.832 1243.05 493.416H1268.3Z" fill="white"/>
<rect width="2000" height="1000" rx="80" fill="#0F9D58"/>
<path d="M711.616 276.243C711.616 320.872 675.437 357.051 630.808 357.051C586.179 357.051 550 320.872 550 276.243C550 231.614 586.179 195.435 630.808 195.435C675.437 195.435 711.616 231.614 711.616 276.243Z" fill="white"/>
<path d="M616.263 195.435H885.354V357.051H616.263V195.435Z" fill="white"/>
<path d="M950 276.243C950 320.872 913.821 357.051 869.192 357.051C824.563 357.051 788.384 320.872 788.384 276.243C788.384 231.614 824.563 195.435 869.192 195.435C913.821 195.435 950 231.614 950 276.243Z" fill="white"/>
<path d="M885.353 195.435C885.353 240.064 849.174 276.243 804.545 276.243C759.916 276.243 723.737 240.064 723.737 195.435C723.737 150.806 759.916 114.627 804.545 114.627C849.174 114.627 885.353 150.806 885.353 195.435Z" fill="white"/>
<path d="M777.88 172.808C777.88 217.437 741.701 253.616 697.071 253.616C652.442 253.616 616.263 217.437 616.263 172.808C616.263 128.179 652.442 92 697.071 92C741.701 92 777.88 128.179 777.88 172.808Z" fill="white"/>
<mask id="mask0" mask-type="alpha" maskUnits="userSpaceOnUse" x="0" y="357" width="1500" height="643">
<rect width="1500" height="643" rx="80" transform="matrix(-1 0 0 1 1500 357)" fill="black"/>
</mask>
<g mask="url(#mask0)">
<path d="M1250 1002H1252V1000V550C1252 521.281 1228.72 498 1200 498H300C271.281 498 248 521.281 248 550V1000V1002H250H1250Z" fill="#0F9D58" stroke="white" stroke-width="4"/>
<path d="M1199.3 1101.69C1226.92 1101.69 1249.3 1079.3 1249.3 1051.69L1249.3 541C1249.3 513.386 1226.92 491 1199.3 491L299.999 491C272.384 491 249.999 513.386 249.999 541L249.999 1051.69C249.999 1079.3 272.384 1101.69 299.999 1101.69L1199.3 1101.69Z" fill="white"/>
<path d="M1251 1041.97C1251 1070.14 1228.17 1092.97 1200 1092.97L300.694 1092.97C272.527 1092.97 249.694 1070.14 249.694 1041.97L249.694 635.379C249.694 607.212 272.527 584.379 300.694 584.379L1200 584.379C1228.17 584.379 1251 607.212 1251 635.379L1251 1041.97Z" fill="black" fill-opacity="0.1" stroke="white" stroke-width="2"/>
<rect width="40" height="40" transform="matrix(-1 0 0 1 1138.96 613.137)" fill="#333333"/>
<circle r="20" transform="matrix(-1 0 0 1 1035.69 633.137)" fill="#333333"/>
<path d="M1202.24 613.137L1182.24 653.137H1222.24L1202.24 613.137Z" fill="#333333"/>
<ellipse rx="20" ry="20.8189" transform="matrix(-1 0 0 1 300.09 633.956)" fill="#333333"/>
<path d="M872.066 504.604H627.24V555.379C627.24 570.567 639.552 582.879 654.74 582.879H844.566C859.754 582.879 872.066 570.567 872.066 555.379V504.604Z" fill="white" stroke="white" stroke-width="5"/>
<path d="M1264.31 2450.72C1264.31 2486.62 1235.21 2515.72 1199.31 2515.72L300.003 2515.72C264.104 2515.72 235.003 2486.62 235.003 2450.72L235.003 552.111C235.003 516.212 264.104 487.111 300.003 487.111L1199.31 487.111C1235.21 487.111 1264.31 516.213 1264.31 552.111L1264.31 2450.72Z" stroke="white" stroke-width="30"/>
<mask id="path-14-inside-1" fill="white">
<path fill-rule="evenodd" clip-rule="evenodd" d="M583.244 502.104H624.742V543.69C624.715 520.764 606.159 502.179 583.244 502.104ZM874.569 502.104V543.716C874.582 520.778 893.143 502.179 916.066 502.104H874.569Z"/>
</mask>
<path fill-rule="evenodd" clip-rule="evenodd" d="M583.244 502.104H624.742V543.69C624.715 520.764 606.159 502.179 583.244 502.104ZM874.569 502.104V543.716C874.582 520.778 893.143 502.179 916.066 502.104H874.569Z" fill="white"/>
<path d="M624.742 502.104V501.604H625.242V502.104H624.742ZM583.244 502.104L583.243 502.604L583.244 501.604V502.104ZM624.742 543.69H625.242L624.242 543.691L624.742 543.69ZM874.569 543.716L875.069 543.716L874.069 543.716H874.569ZM874.569 502.104H874.069V501.604H874.569V502.104ZM916.066 502.104V501.604L916.068 502.604L916.066 502.104ZM624.742 502.604H583.244V501.604H624.742V502.604ZM624.242 543.69V502.104H625.242V543.69H624.242ZM624.242 543.691C624.215 521.04 605.882 502.678 583.243 502.604L583.246 501.604C606.436 501.68 625.214 520.488 625.242 543.689L624.242 543.691ZM874.069 543.716V502.104H875.069V543.716H874.069ZM916.068 502.604C893.42 502.678 875.082 521.054 875.069 543.716L874.069 543.715C874.083 520.502 892.866 501.68 916.065 501.604L916.068 502.604ZM874.569 501.604H916.066V502.604H874.569V501.604Z" fill="white" mask="url(#path-14-inside-1)"/>
</g>
<circle cx="750" cy="820" r="125" fill="white"/>
<line x1="680.303" y1="819.847" x2="734.848" y2="874.392" stroke="#0F9D58" stroke-width="15"/>
<line x1="724.244" y1="875.156" x2="819.697" y2="779.702" stroke="#0F9D58" stroke-width="15"/>
<path d="M1232.51 256.672C1226.24 256.672 1220.48 255.2 1215.23 252.256C1209.98 249.312 1205.82 245.248 1202.75 240.064C1199.68 234.816 1198.14 228.896 1198.14 222.304C1198.14 215.776 1199.68 209.92 1202.75 204.736C1205.82 199.488 1209.98 195.392 1215.23 192.448C1220.48 189.504 1226.24 188.032 1232.51 188.032C1238.85 188.032 1244.61 189.504 1249.79 192.448C1255.04 195.392 1259.17 199.488 1262.17 204.736C1265.25 209.92 1266.78 215.776 1266.78 222.304C1266.78 228.896 1265.25 234.816 1262.17 240.064C1259.17 245.248 1255.04 249.312 1249.79 252.256C1244.54 255.2 1238.78 256.672 1232.51 256.672ZM1232.51 244.672C1236.54 244.672 1240.09 243.776 1243.17 241.984C1246.24 240.128 1248.64 237.504 1250.37 234.112C1252.09 230.72 1252.96 226.784 1252.96 222.304C1252.96 217.824 1252.09 213.92 1250.37 210.592C1248.64 207.2 1246.24 204.608 1243.17 202.816C1240.09 201.024 1236.54 200.128 1232.51 200.128C1228.48 200.128 1224.89 201.024 1221.76 202.816C1218.69 204.608 1216.29 207.2 1214.56 210.592C1212.83 213.92 1211.97 217.824 1211.97 222.304C1211.97 226.784 1212.83 230.72 1214.56 234.112C1216.29 237.504 1218.69 240.128 1221.76 241.984C1224.89 243.776 1228.48 244.672 1232.51 244.672ZM1298.96 243.616L1312.4 202.816H1326.7L1307.02 256H1290.7L1271.12 202.816H1285.52L1298.96 243.616ZM1383.69 228.256C1383.69 230.176 1383.56 231.904 1383.31 233.44H1344.43C1344.75 237.28 1346.09 240.288 1348.46 242.464C1350.83 244.64 1353.74 245.728 1357.19 245.728C1362.19 245.728 1365.74 243.584 1367.85 239.296H1382.35C1380.81 244.416 1377.87 248.64 1373.51 251.968C1369.16 255.232 1363.82 256.864 1357.48 256.864C1352.36 256.864 1347.75 255.744 1343.66 253.504C1339.63 251.2 1336.46 247.968 1334.15 243.808C1331.91 239.648 1330.79 234.848 1330.79 229.408C1330.79 223.904 1331.91 219.072 1334.15 214.912C1336.39 210.752 1339.53 207.552 1343.56 205.312C1347.59 203.072 1352.23 201.952 1357.48 201.952C1362.54 201.952 1367.05 203.04 1371.02 205.216C1375.05 207.392 1378.15 210.496 1380.33 214.528C1382.57 218.496 1383.69 223.072 1383.69 228.256ZM1369.77 224.416C1369.71 220.96 1368.46 218.208 1366.03 216.16C1363.59 214.048 1360.62 212.992 1357.1 212.992C1353.77 212.992 1350.95 214.016 1348.65 216.064C1346.41 218.048 1345.03 220.832 1344.52 224.416H1369.77ZM1406.94 211.072C1408.67 208.256 1410.91 206.048 1413.66 204.448C1416.48 202.848 1419.68 202.048 1423.26 202.048V216.16H1419.71C1415.48 216.16 1412.28 217.152 1410.11 219.136C1408 221.12 1406.94 224.576 1406.94 229.504V256H1393.5V202.816H1406.94V211.072ZM1473.21 216.064V227.392H1432.5V216.064H1473.21ZM1533.88 188.992V199.84H1516.02V256H1502.58V199.84H1484.73V188.992H1533.88ZM1573.64 202.048C1577.67 202.048 1581.25 202.944 1584.39 204.736C1587.53 206.464 1589.96 209.056 1591.69 212.512C1593.48 215.904 1594.37 220 1594.37 224.8V256H1580.93V226.624C1580.93 222.4 1579.88 219.168 1577.77 216.928C1575.65 214.624 1572.77 213.472 1569.13 213.472C1565.41 213.472 1562.47 214.624 1560.29 216.928C1558.18 219.168 1557.13 222.4 1557.13 226.624V256H1543.69V184.96H1557.13V209.44C1558.85 207.136 1561.16 205.344 1564.04 204.064C1566.92 202.72 1570.12 202.048 1573.64 202.048ZM1656.6 228.256C1656.6 230.176 1656.47 231.904 1656.21 233.44H1617.33C1617.65 237.28 1619 240.288 1621.36 242.464C1623.73 244.64 1626.64 245.728 1630.1 245.728C1635.09 245.728 1638.64 243.584 1640.76 239.296H1655.25C1653.72 244.416 1650.77 248.64 1646.42 251.968C1642.07 255.232 1636.72 256.864 1630.39 256.864C1625.27 256.864 1620.66 255.744 1616.56 253.504C1612.53 251.2 1609.36 247.968 1607.06 243.808C1604.82 239.648 1603.7 234.848 1603.7 229.408C1603.7 223.904 1604.82 219.072 1607.06 214.912C1609.3 210.752 1612.44 207.552 1616.47 205.312C1620.5 203.072 1625.14 201.952 1630.39 201.952C1635.44 201.952 1639.96 203.04 1643.92 205.216C1647.96 207.392 1651.06 210.496 1653.24 214.528C1655.48 218.496 1656.6 223.072 1656.6 228.256ZM1642.68 224.416C1642.61 220.96 1641.36 218.208 1638.93 216.16C1636.5 214.048 1633.52 212.992 1630 212.992C1626.68 212.992 1623.86 214.016 1621.56 216.064C1619.32 218.048 1617.94 220.832 1617.43 224.416H1642.68ZM1707.3 216.064V227.392H1666.6V216.064H1707.3ZM1763.46 243.232H1736.77L1732.36 256H1718.25L1742.34 188.896H1757.99L1782.09 256H1767.88L1763.46 243.232ZM1759.81 232.48L1750.12 204.448L1740.42 232.48H1759.81ZM1797.91 196.48C1795.54 196.48 1793.56 195.744 1791.96 194.272C1790.42 192.736 1789.65 190.848 1789.65 188.608C1789.65 186.368 1790.42 184.512 1791.96 183.04C1793.56 181.504 1795.54 180.736 1797.91 180.736C1800.28 180.736 1802.23 181.504 1803.76 183.04C1805.36 184.512 1806.16 186.368 1806.16 188.608C1806.16 190.848 1805.36 192.736 1803.76 194.272C1802.23 195.744 1800.28 196.48 1797.91 196.48ZM1804.53 202.816V256H1791.09V202.816H1804.53ZM1831.25 211.072C1832.98 208.256 1835.22 206.048 1837.97 204.448C1840.79 202.848 1843.99 202.048 1847.57 202.048V216.16H1844.02C1839.8 216.16 1836.6 217.152 1834.42 219.136C1832.31 221.12 1831.25 224.576 1831.25 229.504V256H1817.81V202.816H1831.25V211.072ZM1499.39 346.816V400H1485.86V393.28C1484.13 395.584 1481.86 397.408 1479.04 398.752C1476.29 400.032 1473.28 400.672 1470.02 400.672C1465.86 400.672 1462.18 399.808 1458.98 398.08C1455.78 396.288 1453.25 393.696 1451.39 390.304C1449.6 386.848 1448.71 382.752 1448.71 378.016V346.816H1462.15V376.096C1462.15 380.32 1463.2 383.584 1465.31 385.888C1467.43 388.128 1470.31 389.248 1473.95 389.248C1477.67 389.248 1480.58 388.128 1482.69 385.888C1484.8 383.584 1485.86 380.32 1485.86 376.096V346.816H1499.39ZM1526.1 354.496C1527.82 352.064 1530.19 350.048 1533.2 348.448C1536.27 346.784 1539.76 345.952 1543.66 345.952C1548.21 345.952 1552.3 347.072 1555.95 349.312C1559.66 351.552 1562.58 354.752 1564.69 358.912C1566.86 363.008 1567.95 367.776 1567.95 373.216C1567.95 378.656 1566.86 383.488 1564.69 387.712C1562.58 391.872 1559.66 395.104 1555.95 397.408C1552.3 399.712 1548.21 400.864 1543.66 400.864C1539.76 400.864 1536.3 400.064 1533.3 398.464C1530.35 396.864 1527.95 394.848 1526.1 392.416V425.344H1512.66V346.816H1526.1V354.496ZM1554.22 373.216C1554.22 370.016 1553.55 367.264 1552.21 364.96C1550.93 362.592 1549.2 360.8 1547.02 359.584C1544.91 358.368 1542.61 357.76 1540.11 357.76C1537.68 357.76 1535.38 358.4 1533.2 359.68C1531.09 360.896 1529.36 362.688 1528.02 365.056C1526.74 367.424 1526.1 370.208 1526.1 373.408C1526.1 376.608 1526.74 379.392 1528.02 381.76C1529.36 384.128 1531.09 385.952 1533.2 387.232C1535.38 388.448 1537.68 389.056 1540.11 389.056C1542.61 389.056 1544.91 388.416 1547.02 387.136C1549.2 385.856 1550.93 384.032 1552.21 381.664C1553.55 379.296 1554.22 376.48 1554.22 373.216ZM1574.26 373.216C1574.26 367.84 1575.32 363.072 1577.43 358.912C1579.61 354.752 1582.55 351.552 1586.26 349.312C1589.97 347.072 1594.1 345.952 1598.65 345.952C1602.1 345.952 1605.4 346.72 1608.53 348.256C1611.67 349.728 1614.17 351.712 1616.02 354.208V328.96H1629.65V400H1616.02V392.128C1614.36 394.752 1612.02 396.864 1609.01 398.464C1606.01 400.064 1602.52 400.864 1598.55 400.864C1594.07 400.864 1589.97 399.712 1586.26 397.408C1582.55 395.104 1579.61 391.872 1577.43 387.712C1575.32 383.488 1574.26 378.656 1574.26 373.216ZM1616.12 373.408C1616.12 370.144 1615.48 367.36 1614.2 365.056C1612.92 362.688 1611.19 360.896 1609.01 359.68C1606.84 358.4 1604.5 357.76 1602.01 357.76C1599.51 357.76 1597.21 358.368 1595.09 359.584C1592.98 360.8 1591.25 362.592 1589.91 364.96C1588.63 367.264 1587.99 370.016 1587.99 373.216C1587.99 376.416 1588.63 379.232 1589.91 381.664C1591.25 384.032 1592.98 385.856 1595.09 387.136C1597.27 388.416 1599.57 389.056 1602.01 389.056C1604.5 389.056 1606.84 388.448 1609.01 387.232C1611.19 385.952 1612.92 384.16 1614.2 381.856C1615.48 379.488 1616.12 376.672 1616.12 373.408ZM1639.32 373.216C1639.32 367.84 1640.38 363.072 1642.49 358.912C1644.67 354.752 1647.58 351.552 1651.23 349.312C1654.94 347.072 1659.07 345.952 1663.61 345.952C1667.58 345.952 1671.04 346.752 1673.98 348.352C1676.99 349.952 1679.39 351.968 1681.18 354.4V346.816H1694.72V400H1681.18V392.224C1679.45 394.72 1677.05 396.8 1673.98 398.464C1670.97 400.064 1667.48 400.864 1663.52 400.864C1659.04 400.864 1654.94 399.712 1651.23 397.408C1647.58 395.104 1644.67 391.872 1642.49 387.712C1640.38 383.488 1639.32 378.656 1639.32 373.216ZM1681.18 373.408C1681.18 370.144 1680.54 367.36 1679.26 365.056C1677.98 362.688 1676.25 360.896 1674.08 359.68C1671.9 358.4 1669.56 357.76 1667.07 357.76C1664.57 357.76 1662.27 358.368 1660.16 359.584C1658.04 360.8 1656.32 362.592 1654.97 364.96C1653.69 367.264 1653.05 370.016 1653.05 373.216C1653.05 376.416 1653.69 379.232 1654.97 381.664C1656.32 384.032 1658.04 385.856 1660.16 387.136C1662.33 388.416 1664.64 389.056 1667.07 389.056C1669.56 389.056 1671.9 388.448 1674.08 387.232C1676.25 385.952 1677.98 384.16 1679.26 381.856C1680.54 379.488 1681.18 376.672 1681.18 373.408ZM1723.49 357.856V383.584C1723.49 385.376 1723.91 386.688 1724.74 387.52C1725.63 388.288 1727.11 388.672 1729.15 388.672H1735.39V400H1726.95C1715.62 400 1709.95 394.496 1709.95 383.488V357.856H1703.62V346.816H1709.95V333.664H1723.49V346.816H1735.39V357.856H1723.49ZM1794.5 372.256C1794.5 374.176 1794.37 375.904 1794.12 377.44H1755.24C1755.56 381.28 1756.9 384.288 1759.27 386.464C1761.64 388.64 1764.55 389.728 1768.01 389.728C1773 389.728 1776.55 387.584 1778.66 383.296H1793.16C1791.62 388.416 1788.68 392.64 1784.33 395.968C1779.97 399.232 1774.63 400.864 1768.29 400.864C1763.17 400.864 1758.57 399.744 1754.47 397.504C1750.44 395.2 1747.27 391.968 1744.97 387.808C1742.73 383.648 1741.61 378.848 1741.61 373.408C1741.61 367.904 1742.73 363.072 1744.97 358.912C1747.21 354.752 1750.34 351.552 1754.37 349.312C1758.41 347.072 1763.05 345.952 1768.29 345.952C1773.35 345.952 1777.86 347.04 1781.83 349.216C1785.86 351.392 1788.97 354.496 1791.14 358.528C1793.38 362.496 1794.5 367.072 1794.5 372.256ZM1780.58 368.416C1780.52 364.96 1779.27 362.208 1776.84 360.16C1774.41 358.048 1771.43 356.992 1767.91 356.992C1764.58 356.992 1761.77 358.016 1759.46 360.064C1757.22 362.048 1755.85 364.832 1755.33 368.416H1780.58ZM1824.66 400.864C1820.31 400.864 1816.41 400.096 1812.95 398.56C1809.5 396.96 1806.74 394.816 1804.7 392.128C1802.71 389.44 1801.62 386.464 1801.43 383.2H1814.97C1815.22 385.248 1816.22 386.944 1817.94 388.288C1819.74 389.632 1821.94 390.304 1824.57 390.304C1827.13 390.304 1829.11 389.792 1830.52 388.768C1831.99 387.744 1832.73 386.432 1832.73 384.832C1832.73 383.104 1831.83 381.824 1830.04 380.992C1828.31 380.096 1825.53 379.136 1821.69 378.112C1817.72 377.152 1814.46 376.16 1811.9 375.136C1809.4 374.112 1807.22 372.544 1805.37 370.432C1803.58 368.32 1802.68 365.472 1802.68 361.888C1802.68 358.944 1803.51 356.256 1805.18 353.824C1806.9 351.392 1809.34 349.472 1812.47 348.064C1815.67 346.656 1819.42 345.952 1823.7 345.952C1830.04 345.952 1835.1 347.552 1838.87 350.752C1842.65 353.888 1844.73 358.144 1845.11 363.52H1832.25C1832.06 361.408 1831.16 359.744 1829.56 358.528C1828.02 357.248 1825.94 356.608 1823.32 356.608C1820.89 356.608 1819 357.056 1817.66 357.952C1816.38 358.848 1815.74 360.096 1815.74 361.696C1815.74 363.488 1816.63 364.864 1818.42 365.824C1820.22 366.72 1823 367.648 1826.78 368.608C1830.62 369.568 1833.78 370.56 1836.28 371.584C1838.78 372.608 1840.92 374.208 1842.71 376.384C1844.57 378.496 1845.53 381.312 1845.59 384.832C1845.59 387.904 1844.73 390.656 1843 393.088C1841.34 395.52 1838.9 397.44 1835.7 398.848C1832.57 400.192 1828.89 400.864 1824.66 400.864Z" fill="white"/>
</svg>
