<svg width="1750" height="876" viewBox="0 0 1750 876" fill="none" xmlns="http://www.w3.org/2000/svg">
<rect width="1750" height="875" rx="80" fill="#0F9D58"/>
<path d="M609.414 241.714C609.414 280.764 577.757 312.421 538.707 312.421C499.657 312.421 468 280.764 468 241.714C468 202.663 499.657 171.006 538.707 171.006C577.757 171.006 609.414 202.663 609.414 241.714Z" fill="white"/>
<path d="M538.707 171.006H774.162V312.421H538.707V171.006Z" fill="white"/>
<path d="M844.869 241.714C844.869 280.764 813.213 312.421 774.162 312.421C735.112 312.421 703.455 280.764 703.455 241.714C703.455 202.663 735.112 171.006 774.162 171.006C813.213 171.006 844.869 202.663 844.869 241.714Z" fill="white"/>
<path d="M774.161 171.006C774.161 210.056 742.505 241.714 703.454 241.714C664.404 241.714 632.747 210.056 632.747 171.006C632.747 131.955 664.404 100.299 703.454 100.299C742.505 100.299 774.161 131.955 774.161 171.006Z" fill="white"/>
<path d="M678.645 156.564C678.645 195.615 646.989 227.272 607.938 227.272C568.888 227.272 537.231 195.615 537.231 156.564C537.231 117.514 568.888 85.8574 607.938 85.8574C646.989 85.8574 678.645 117.514 678.645 156.564Z" fill="white"/>
<path d="M302.667 407C254.802 407 216 445.802 216 493.667L216 875H236L236 560.238C236.052 523.463 265.88 493.667 302.667 493.667H588.912C589.052 493.668 589.193 493.669 589.333 493.669L722.667 493.669C722.807 493.669 722.948 493.668 723.088 493.667H1009.33C1046.14 493.667 1075.98 523.499 1076 560.305V493.667L1076 875H1096V493.667C1096 445.802 1057.2 407 1009.33 407L302.667 407Z" fill="white"/>
<path d="M236 543.667C236 516.053 258.386 493.667 286 493.667H1026C1053.61 493.667 1076 516.053 1076 543.667V875H236V543.667Z" fill="white"/>
<path d="M236 559C236 523.102 265.101 494 301 494H1011C1046.9 494 1076 523.101 1076 559V875.333H236V559Z" fill="black" fill-opacity="0.1"/>
<circle cx="656" cy="708" r="110" fill="white"/>
<path d="M595.305 707.23L643.304 755.23M632.698 755.899L716.697 671.9" stroke="#0F9D58" stroke-width="15"/>
<path d="M981.332 516.333L946.332 516.333V551.333L981.332 551.333V516.333Z" fill="black"/>
<path d="M876.333 533.833C876.333 543.498 884.168 551.333 893.833 551.333C903.498 551.333 911.333 543.498 911.333 533.833C911.333 524.168 903.498 516.333 893.833 516.333C884.168 516.333 876.333 524.168 876.333 533.833Z" fill="black"/>
<path d="M1033.83 516.333L1016.33 551.333L1051.33 551.333L1033.83 516.333Z" fill="black"/>
<path d="M261.332 533.833C261.332 543.498 269.167 551.333 278.832 551.333C288.497 551.333 296.332 543.498 296.332 533.833C296.332 524.168 288.497 516.333 278.832 516.333C269.167 516.333 261.332 524.168 261.332 533.833Z" fill="black"/>
<path d="M1023.51 186.672C1017.24 186.672 1011.48 185.2 1006.23 182.256C1000.98 179.312 996.821 175.248 993.749 170.064C990.677 164.816 989.141 158.896 989.141 152.304C989.141 145.776 990.677 139.92 993.749 134.736C996.821 129.488 1000.98 125.392 1006.23 122.448C1011.48 119.504 1017.24 118.032 1023.51 118.032C1029.85 118.032 1035.61 119.504 1040.79 122.448C1046.04 125.392 1050.17 129.488 1053.17 134.736C1056.25 139.92 1057.78 145.776 1057.78 152.304C1057.78 158.896 1056.25 164.816 1053.17 170.064C1050.17 175.248 1046.04 179.312 1040.79 182.256C1035.54 185.2 1029.78 186.672 1023.51 186.672ZM1023.51 174.672C1027.54 174.672 1031.09 173.776 1034.17 171.984C1037.24 170.128 1039.64 167.504 1041.37 164.112C1043.09 160.72 1043.96 156.784 1043.96 152.304C1043.96 147.824 1043.09 143.92 1041.37 140.592C1039.64 137.2 1037.24 134.608 1034.17 132.816C1031.09 131.024 1027.54 130.128 1023.51 130.128C1019.48 130.128 1015.89 131.024 1012.76 132.816C1009.69 134.608 1007.29 137.2 1005.56 140.592C1003.83 143.92 1002.97 147.824 1002.97 152.304C1002.97 156.784 1003.83 160.72 1005.56 164.112C1007.29 167.504 1009.69 170.128 1012.76 171.984C1015.89 173.776 1019.48 174.672 1023.51 174.672ZM1089.96 173.616L1103.4 132.816H1117.7L1098.02 186H1081.7L1062.12 132.816H1076.52L1089.96 173.616ZM1174.69 158.256C1174.69 160.176 1174.56 161.904 1174.31 163.44H1135.43C1135.75 167.28 1137.09 170.288 1139.46 172.464C1141.83 174.64 1144.74 175.728 1148.19 175.728C1153.19 175.728 1156.74 173.584 1158.85 169.296H1173.35C1171.81 174.416 1168.87 178.64 1164.51 181.968C1160.16 185.232 1154.82 186.864 1148.48 186.864C1143.36 186.864 1138.75 185.744 1134.66 183.504C1130.63 181.2 1127.46 177.968 1125.15 173.808C1122.91 169.648 1121.79 164.848 1121.79 159.408C1121.79 153.904 1122.91 149.072 1125.15 144.912C1127.39 140.752 1130.53 137.552 1134.56 135.312C1138.59 133.072 1143.23 131.952 1148.48 131.952C1153.54 131.952 1158.05 133.04 1162.02 135.216C1166.05 137.392 1169.15 140.496 1171.33 144.528C1173.57 148.496 1174.69 153.072 1174.69 158.256ZM1160.77 154.416C1160.71 150.96 1159.46 148.208 1157.03 146.16C1154.59 144.048 1151.62 142.992 1148.1 142.992C1144.77 142.992 1141.95 144.016 1139.65 146.064C1137.41 148.048 1136.03 150.832 1135.52 154.416H1160.77ZM1197.94 141.072C1199.67 138.256 1201.91 136.048 1204.66 134.448C1207.48 132.848 1210.68 132.048 1214.26 132.048V146.16H1210.71C1206.48 146.16 1203.28 147.152 1201.11 149.136C1199 151.12 1197.94 154.576 1197.94 159.504V186H1184.5V132.816H1197.94V141.072ZM1264.21 146.064V157.392H1223.5V146.064H1264.21ZM1324.88 118.992V129.84H1307.02V186H1293.58V129.84H1275.73V118.992H1324.88ZM1364.64 132.048C1368.67 132.048 1372.25 132.944 1375.39 134.736C1378.53 136.464 1380.96 139.056 1382.69 142.512C1384.48 145.904 1385.37 150 1385.37 154.8V186H1371.93V156.624C1371.93 152.4 1370.88 149.168 1368.77 146.928C1366.65 144.624 1363.77 143.472 1360.13 143.472C1356.41 143.472 1353.47 144.624 1351.29 146.928C1349.18 149.168 1348.13 152.4 1348.13 156.624V186H1334.69V114.96H1348.13V139.44C1349.85 137.136 1352.16 135.344 1355.04 134.064C1357.92 132.72 1361.12 132.048 1364.64 132.048ZM1447.6 158.256C1447.6 160.176 1447.47 161.904 1447.21 163.44H1408.33C1408.65 167.28 1410 170.288 1412.36 172.464C1414.73 174.64 1417.64 175.728 1421.1 175.728C1426.09 175.728 1429.64 173.584 1431.76 169.296H1446.25C1444.72 174.416 1441.77 178.64 1437.42 181.968C1433.07 185.232 1427.72 186.864 1421.39 186.864C1416.27 186.864 1411.66 185.744 1407.56 183.504C1403.53 181.2 1400.36 177.968 1398.06 173.808C1395.82 169.648 1394.7 164.848 1394.7 159.408C1394.7 153.904 1395.82 149.072 1398.06 144.912C1400.3 140.752 1403.44 137.552 1407.47 135.312C1411.5 133.072 1416.14 131.952 1421.39 131.952C1426.44 131.952 1430.96 133.04 1434.92 135.216C1438.96 137.392 1442.06 140.496 1444.24 144.528C1446.48 148.496 1447.6 153.072 1447.6 158.256ZM1433.68 154.416C1433.61 150.96 1432.36 148.208 1429.93 146.16C1427.5 144.048 1424.52 142.992 1421 142.992C1417.68 142.992 1414.86 144.016 1412.56 146.064C1410.32 148.048 1408.94 150.832 1408.43 154.416H1433.68ZM1498.3 146.064V157.392H1457.6V146.064H1498.3ZM1554.46 173.232H1527.77L1523.36 186H1509.25L1533.34 118.896H1548.99L1573.09 186H1558.88L1554.46 173.232ZM1550.81 162.48L1541.12 134.448L1531.42 162.48H1550.81ZM1588.91 126.48C1586.54 126.48 1584.56 125.744 1582.96 124.272C1581.42 122.736 1580.65 120.848 1580.65 118.608C1580.65 116.368 1581.42 114.512 1582.96 113.04C1584.56 111.504 1586.54 110.736 1588.91 110.736C1591.28 110.736 1593.23 111.504 1594.76 113.04C1596.36 114.512 1597.16 116.368 1597.16 118.608C1597.16 120.848 1596.36 122.736 1594.76 124.272C1593.23 125.744 1591.28 126.48 1588.91 126.48ZM1595.53 132.816V186H1582.09V132.816H1595.53ZM1622.25 141.072C1623.98 138.256 1626.22 136.048 1628.97 134.448C1631.79 132.848 1634.99 132.048 1638.57 132.048V146.16H1635.02C1630.8 146.16 1627.6 147.152 1625.42 149.136C1623.31 151.12 1622.25 154.576 1622.25 159.504V186H1608.81V132.816H1622.25V141.072ZM1290.39 276.816V330H1276.86V323.28C1275.13 325.584 1272.86 327.408 1270.04 328.752C1267.29 330.032 1264.28 330.672 1261.02 330.672C1256.86 330.672 1253.18 329.808 1249.98 328.08C1246.78 326.288 1244.25 323.696 1242.39 320.304C1240.6 316.848 1239.71 312.752 1239.71 308.016V276.816H1253.15V306.096C1253.15 310.32 1254.2 313.584 1256.31 315.888C1258.43 318.128 1261.31 319.248 1264.95 319.248C1268.67 319.248 1271.58 318.128 1273.69 315.888C1275.8 313.584 1276.86 310.32 1276.86 306.096V276.816H1290.39ZM1317.1 284.496C1318.82 282.064 1321.19 280.048 1324.2 278.448C1327.27 276.784 1330.76 275.952 1334.66 275.952C1339.21 275.952 1343.3 277.072 1346.95 279.312C1350.66 281.552 1353.58 284.752 1355.69 288.912C1357.86 293.008 1358.95 297.776 1358.95 303.216C1358.95 308.656 1357.86 313.488 1355.69 317.712C1353.58 321.872 1350.66 325.104 1346.95 327.408C1343.3 329.712 1339.21 330.864 1334.66 330.864C1330.76 330.864 1327.3 330.064 1324.3 328.464C1321.35 326.864 1318.95 324.848 1317.1 322.416V355.344H1303.66V276.816H1317.1V284.496ZM1345.22 303.216C1345.22 300.016 1344.55 297.264 1343.21 294.96C1341.93 292.592 1340.2 290.8 1338.02 289.584C1335.91 288.368 1333.61 287.76 1331.11 287.76C1328.68 287.76 1326.38 288.4 1324.2 289.68C1322.09 290.896 1320.36 292.688 1319.02 295.056C1317.74 297.424 1317.1 300.208 1317.1 303.408C1317.1 306.608 1317.74 309.392 1319.02 311.76C1320.36 314.128 1322.09 315.952 1324.2 317.232C1326.38 318.448 1328.68 319.056 1331.11 319.056C1333.61 319.056 1335.91 318.416 1338.02 317.136C1340.2 315.856 1341.93 314.032 1343.21 311.664C1344.55 309.296 1345.22 306.48 1345.22 303.216ZM1365.26 303.216C1365.26 297.84 1366.32 293.072 1368.43 288.912C1370.61 284.752 1373.55 281.552 1377.26 279.312C1380.97 277.072 1385.1 275.952 1389.65 275.952C1393.1 275.952 1396.4 276.72 1399.53 278.256C1402.67 279.728 1405.17 281.712 1407.02 284.208V258.96H1420.65V330H1407.02V322.128C1405.36 324.752 1403.02 326.864 1400.01 328.464C1397.01 330.064 1393.52 330.864 1389.55 330.864C1385.07 330.864 1380.97 329.712 1377.26 327.408C1373.55 325.104 1370.61 321.872 1368.43 317.712C1366.32 313.488 1365.26 308.656 1365.26 303.216ZM1407.12 303.408C1407.12 300.144 1406.48 297.36 1405.2 295.056C1403.92 292.688 1402.19 290.896 1400.01 289.68C1397.84 288.4 1395.5 287.76 1393.01 287.76C1390.51 287.76 1388.21 288.368 1386.09 289.584C1383.98 290.8 1382.25 292.592 1380.91 294.96C1379.63 297.264 1378.99 300.016 1378.99 303.216C1378.99 306.416 1379.63 309.232 1380.91 311.664C1382.25 314.032 1383.98 315.856 1386.09 317.136C1388.27 318.416 1390.57 319.056 1393.01 319.056C1395.5 319.056 1397.84 318.448 1400.01 317.232C1402.19 315.952 1403.92 314.16 1405.2 311.856C1406.48 309.488 1407.12 306.672 1407.12 303.408ZM1430.32 303.216C1430.32 297.84 1431.38 293.072 1433.49 288.912C1435.67 284.752 1438.58 281.552 1442.23 279.312C1445.94 277.072 1450.07 275.952 1454.61 275.952C1458.58 275.952 1462.04 276.752 1464.98 278.352C1467.99 279.952 1470.39 281.968 1472.18 284.4V276.816H1485.72V330H1472.18V322.224C1470.45 324.72 1468.05 326.8 1464.98 328.464C1461.97 330.064 1458.48 330.864 1454.52 330.864C1450.04 330.864 1445.94 329.712 1442.23 327.408C1438.58 325.104 1435.67 321.872 1433.49 317.712C1431.38 313.488 1430.32 308.656 1430.32 303.216ZM1472.18 303.408C1472.18 300.144 1471.54 297.36 1470.26 295.056C1468.98 292.688 1467.25 290.896 1465.08 289.68C1462.9 288.4 1460.56 287.76 1458.07 287.76C1455.57 287.76 1453.27 288.368 1451.16 289.584C1449.04 290.8 1447.32 292.592 1445.97 294.96C1444.69 297.264 1444.05 300.016 1444.05 303.216C1444.05 306.416 1444.69 309.232 1445.97 311.664C1447.32 314.032 1449.04 315.856 1451.16 317.136C1453.33 318.416 1455.64 319.056 1458.07 319.056C1460.56 319.056 1462.9 318.448 1465.08 317.232C1467.25 315.952 1468.98 314.16 1470.26 311.856C1471.54 309.488 1472.18 306.672 1472.18 303.408ZM1514.49 287.856V313.584C1514.49 315.376 1514.91 316.688 1515.74 317.52C1516.63 318.288 1518.11 318.672 1520.15 318.672H1526.39V330H1517.95C1506.62 330 1500.95 324.496 1500.95 313.488V287.856H1494.62V276.816H1500.95V263.664H1514.49V276.816H1526.39V287.856H1514.49ZM1585.5 302.256C1585.5 304.176 1585.37 305.904 1585.12 307.44H1546.24C1546.56 311.28 1547.9 314.288 1550.27 316.464C1552.64 318.64 1555.55 319.728 1559.01 319.728C1564 319.728 1567.55 317.584 1569.66 313.296H1584.16C1582.62 318.416 1579.68 322.64 1575.33 325.968C1570.97 329.232 1565.63 330.864 1559.29 330.864C1554.17 330.864 1549.57 329.744 1545.47 327.504C1541.44 325.2 1538.27 321.968 1535.97 317.808C1533.73 313.648 1532.61 308.848 1532.61 303.408C1532.61 297.904 1533.73 293.072 1535.97 288.912C1538.21 284.752 1541.34 281.552 1545.37 279.312C1549.41 277.072 1554.05 275.952 1559.29 275.952C1564.35 275.952 1568.86 277.04 1572.83 279.216C1576.86 281.392 1579.97 284.496 1582.14 288.528C1584.38 292.496 1585.5 297.072 1585.5 302.256ZM1571.58 298.416C1571.52 294.96 1570.27 292.208 1567.84 290.16C1565.41 288.048 1562.43 286.992 1558.91 286.992C1555.58 286.992 1552.77 288.016 1550.46 290.064C1548.22 292.048 1546.85 294.832 1546.33 298.416H1571.58ZM1615.66 330.864C1611.31 330.864 1607.41 330.096 1603.95 328.56C1600.5 326.96 1597.74 324.816 1595.7 322.128C1593.71 319.44 1592.62 316.464 1592.43 313.2H1605.97C1606.22 315.248 1607.22 316.944 1608.94 318.288C1610.74 319.632 1612.94 320.304 1615.57 320.304C1618.13 320.304 1620.11 319.792 1621.52 318.768C1622.99 317.744 1623.73 316.432 1623.73 314.832C1623.73 313.104 1622.83 311.824 1621.04 310.992C1619.31 310.096 1616.53 309.136 1612.69 308.112C1608.72 307.152 1605.46 306.16 1602.9 305.136C1600.4 304.112 1598.22 302.544 1596.37 300.432C1594.58 298.32 1593.68 295.472 1593.68 291.888C1593.68 288.944 1594.51 286.256 1596.18 283.824C1597.9 281.392 1600.34 279.472 1603.47 278.064C1606.67 276.656 1610.42 275.952 1614.7 275.952C1621.04 275.952 1626.1 277.552 1629.87 280.752C1633.65 283.888 1635.73 288.144 1636.11 293.52H1623.25C1623.06 291.408 1622.16 289.744 1620.56 288.528C1619.02 287.248 1616.94 286.608 1614.32 286.608C1611.89 286.608 1610 287.056 1608.66 287.952C1607.38 288.848 1606.74 290.096 1606.74 291.696C1606.74 293.488 1607.63 294.864 1609.42 295.824C1611.22 296.72 1614 297.648 1617.78 298.608C1621.62 299.568 1624.78 300.56 1627.28 301.584C1629.78 302.608 1631.92 304.208 1633.71 306.384C1635.57 308.496 1636.53 311.312 1636.59 314.832C1636.59 317.904 1635.73 320.656 1634 323.088C1632.34 325.52 1629.9 327.44 1626.7 328.848C1623.57 330.192 1619.89 330.864 1615.66 330.864Z" fill="white"/>
</svg>
