<svg width="800" height="1000" viewBox="0 0 800 1000" fill="none" xmlns="http://www.w3.org/2000/svg">
<mask id="mask0" mask-type="alpha" maskUnits="userSpaceOnUse" x="0" y="0" width="800" height="1000">
<path d="M0 1000H800L800 0H0L0 1000Z" fill="black"/>
</mask>
<g mask="url(#mask0)">
<path d="M375.119 510.594C395.388 505.163 407.417 484.328 401.986 464.058L301.543 89.1979C296.111 68.9282 275.277 56.8992 255.007 62.3304L-405.112 239.209C-425.382 244.64 -437.411 265.475 -431.98 285.745L-331.536 660.605C-326.105 680.875 -305.27 692.904 -285 687.472L375.119 510.594Z" fill="black"/>
<path d="M552.845 1170.75C573.115 1165.32 585.144 1144.48 579.713 1124.21L320.514 156.871C315.083 136.601 294.248 124.572 273.979 130.003L-385.756 306.779C-406.026 312.21 -418.055 333.045 -412.624 353.314L-153.425 1320.66C-147.994 1340.93 -127.159 1352.95 -106.889 1347.52L552.845 1170.75Z" fill="#0F9D58"/>
<path fill-rule="evenodd" clip-rule="evenodd" d="M325.563 90.722L698.988 1484.36C707.678 1516.79 688.432 1550.13 656 1558.82L-4.11888 1735.7C-36.5504 1744.39 -69.886 1725.14 -78.576 1692.71L-452.001 299.07C-460.691 266.638 -441.445 233.303 -409.013 224.613L251.106 47.7342C283.537 39.0442 316.873 58.2904 325.563 90.722ZM650.099 1536.8C670.369 1531.37 682.398 1510.53 676.967 1490.26L303.542 96.6225C298.111 76.3528 277.276 64.3238 257.006 69.7551L48.7105 125.568C32.2406 130.263 22.4829 147.242 26.7435 163.85L18.6444 133.624L18.633 133.627L28.7164 171.259C31.9752 183.42 24.7578 195.921 12.596 199.18L-126.743 236.516C-138.904 239.775 -151.405 232.557 -154.664 220.395L-156.761 212.57C-161.543 196.307 -178.339 186.682 -194.811 190.819L-403.113 246.633C-423.382 252.065 -435.411 272.9 -429.98 293.169L-56.5551 1686.81C-51.1238 1707.08 -30.2891 1719.11 -10.0194 1713.68L650.099 1536.8Z" fill="black"/>
<path d="M77.6955 722.009L87.4012 758.231L26.1639 722.876L61.5193 661.639L71.225 697.861C111.19 687.152 134.967 645.97 124.258 606.005C120.99 593.81 114.866 583.028 106.747 574.462L119.652 552.111C133.049 564.438 143.327 580.578 148.406 599.535C162.706 652.902 131.063 707.709 77.6955 722.009ZM32.4021 552.972C-7.56305 563.681 -31.3395 604.863 -20.6309 644.828C-17.3633 657.023 -11.2389 667.805 -3.12037 676.371L-16.0251 698.722C-29.4222 686.395 -39.6997 670.255 -44.779 651.298C-59.0788 597.931 -27.4357 543.124 25.9317 528.824L16.2259 492.602L77.4632 527.957L42.1078 589.194L32.4021 552.972Z" fill="white"/>
</g>
</svg>
