<svg width="714" height="752" viewBox="0 0 714 752" fill="none" xmlns="http://www.w3.org/2000/svg">
<path d="M-146.368 356.649L-147.836 357.043L-147.443 358.511L-58.9353 688.825C-53.2868 709.905 -31.6186 722.416 -10.5381 716.767L650.09 539.752C671.171 534.104 683.681 512.436 678.032 491.355L589.525 161.041L589.132 159.573L587.663 159.966L-146.368 356.649Z" fill="#0F9D58" stroke="#0F9D58" stroke-width="3.0397"/>
<path d="M-128.959 272.772C-149.228 278.203 -161.257 299.038 -155.826 319.308L-55.3825 694.168C-49.9512 714.438 -29.1165 726.467 -8.84676 721.035L651.272 544.157C671.542 538.726 683.571 517.891 678.14 497.621L577.696 122.761C572.265 102.491 551.43 90.4622 531.16 95.8935L-128.959 272.772Z" fill="black"/>
<path d="M-222.689 75.8367C-228.229 55.1616 -215.959 33.9102 -195.284 28.3703L464.45 -148.405C485.126 -153.945 506.377 -141.675 511.917 -121L659.518 429.855C665.058 450.53 652.788 471.781 632.113 477.321L-27.6214 654.097C-48.2965 659.636 -69.5479 647.367 -75.0878 626.692L-222.689 75.8367Z" fill="white" stroke="white" stroke-width="1.51985"/>
<path fill-rule="evenodd" clip-rule="evenodd" d="M-79.3987 692.644L-452.824 -700.997C-461.514 -733.429 -442.267 -766.764 -409.836 -775.454L250.283 -952.333C282.715 -961.023 316.05 -941.776 324.74 -909.345L698.165 484.296C706.855 516.728 687.609 550.063 655.177 558.753L-4.94156 735.632C-37.3731 744.322 -70.7087 725.075 -79.3987 692.644ZM-403.935 -753.433C-424.205 -748.002 -436.234 -727.167 -430.803 -706.898L-57.3778 686.743C-51.9465 707.013 -31.1118 719.042 -10.842 713.611L197.501 657.785C213.951 653.071 223.689 636.096 219.419 619.496L227.523 649.741L227.53 649.739L217.447 612.107C214.188 599.945 221.405 587.444 233.567 584.185L372.906 546.85C385.067 543.591 397.568 550.808 400.827 562.97L402.877 570.619C407.586 586.978 424.424 596.685 440.944 592.555L649.277 536.732C669.547 531.301 681.575 510.466 676.144 490.197L302.719 -903.444C297.288 -923.714 276.453 -935.743 256.184 -930.312L-403.935 -753.433Z" fill="black"/>
<path fill-rule="evenodd" clip-rule="evenodd" d="M287.556 400.35L269.388 489.134L248.408 410.839L223.939 417.396L228.481 395.202L194.229 404.379L194.23 404.382L194.227 404.379L228.481 395.201L246.649 306.417L267.628 384.712L292.098 378.155L287.556 400.35L321.808 391.172L321.807 391.169L321.81 391.172L287.556 400.35Z" fill="#F4B400"/>
<rect x="393.34" y="168.77" width="37.9963" height="379.963" rx="18.9981" transform="rotate(75 393.34 168.77)" fill="black" fill-opacity="0.1"/>
<rect x="393.34" y="168.77" width="37.9963" height="303.97" rx="18.9981" transform="rotate(75 393.34 168.77)" fill="#F4B400"/>
</svg>
