<svg width="1000" height="1687" viewBox="0 0 1000 1687" fill="none" xmlns="http://www.w3.org/2000/svg">
<path d="M920 -3.49691e-06C964.183 -1.56562e-06 1000 35.8172 1000 80L1000 1687L-1.2706e-05 1687L5.75382e-05 79.9999C5.94695e-05 35.8172 35.8173 -4.21458e-05 80.0001 -4.02145e-05L920 -3.49691e-06Z" fill="#DB4437"/>
<rect x="555" y="400" width="400" height="600" rx="40" fill="white"/>
<path d="M555 880H955V960C955 982.091 937.091 1000 915 1000H595C572.909 1000 555 982.091 555 960V880Z" fill="black" fill-opacity="0.1"/>
<rect x="727.332" y="773" width="53.3333" height="53.3333" fill="#4285F4"/>
<circle cx="867.333" cy="799.667" r="26.6667" fill="#F4B400"/>
<path d="M640.667 773L667.333 826.333H614L640.667 773Z" fill="#0F9D58"/>
<line x1="639.666" y1="706.667" x2="639.666" y2="546.667" stroke="black" stroke-width="4"/>
<line x1="639.666" y1="546.667" x2="639.666" y2="466.667" stroke="black" stroke-opacity="0.1" stroke-width="4"/>
<line x1="866.332" y1="626.667" x2="866.332" y2="466.667" stroke="black" stroke-opacity="0.1" stroke-width="4"/>
<line x1="753" y1="706.667" x2="753" y2="466.667" stroke="black" stroke-width="4"/>
<line x1="866.332" y1="706.667" x2="866.332" y2="626.667" stroke="black" stroke-width="4"/>
<circle cx="640.333" cy="546.667" r="13.3333" fill="black"/>
<circle cx="753.667" cy="479.333" r="13.3333" fill="black"/>
<circle cx="867.001" cy="626.666" r="13.3333" fill="black"/>
<line x1="612.49" y1="962.393" x2="636.06" y2="938.823" stroke="black" stroke-width="4"/>
<line x1="636.06" y1="941.652" x2="612.49" y2="918.081" stroke="black" stroke-width="4"/>
<path d="M120.064 208.992V276H106.624V208.992H120.064ZM199.391 222.048C205.919 222.048 211.167 224.064 215.135 228.096C219.167 232.064 221.183 237.632 221.183 244.8V276H207.743V246.624C207.743 242.464 206.687 239.296 204.575 237.12C202.463 234.88 199.583 233.76 195.935 233.76C192.287 233.76 189.375 234.88 187.199 237.12C185.087 239.296 184.031 242.464 184.031 246.624V276H170.591V246.624C170.591 242.464 169.535 239.296 167.423 237.12C165.311 234.88 162.431 233.76 158.783 233.76C155.071 233.76 152.127 234.88 149.951 237.12C147.839 239.296 146.783 242.464 146.783 246.624V276H133.343V222.816H146.783V229.248C148.511 227.008 150.719 225.248 153.407 223.968C156.159 222.688 159.167 222.048 162.431 222.048C166.591 222.048 170.303 222.944 173.567 224.736C176.831 226.464 179.359 228.96 181.151 232.224C182.879 229.152 185.375 226.688 188.639 224.832C191.967 222.976 195.551 222.048 199.391 222.048ZM247.377 230.496C249.105 228.064 251.473 226.048 254.481 224.448C257.553 222.784 261.041 221.952 264.945 221.952C269.489 221.952 273.585 223.072 277.233 225.312C280.945 227.552 283.857 230.752 285.969 234.912C288.145 239.008 289.233 243.776 289.233 249.216C289.233 254.656 288.145 259.488 285.969 263.712C283.857 267.872 280.945 271.104 277.233 273.408C273.585 275.712 269.489 276.864 264.945 276.864C261.041 276.864 257.585 276.064 254.577 274.464C251.633 272.864 249.233 270.848 247.377 268.416V301.344H233.937V222.816H247.377V230.496ZM275.505 249.216C275.505 246.016 274.833 243.264 273.489 240.96C272.209 238.592 270.481 236.8 268.305 235.584C266.193 234.368 263.889 233.76 261.393 233.76C258.961 233.76 256.657 234.4 254.481 235.68C252.369 236.896 250.641 238.688 249.297 241.056C248.017 243.424 247.377 246.208 247.377 249.408C247.377 252.608 248.017 255.392 249.297 257.76C250.641 260.128 252.369 261.952 254.481 263.232C256.657 264.448 258.961 265.056 261.393 265.056C263.889 265.056 266.193 264.416 268.305 263.136C270.481 261.856 272.209 260.032 273.489 257.664C274.833 255.296 275.505 252.48 275.505 249.216ZM312.439 231.072C314.167 228.256 316.407 226.048 319.159 224.448C321.975 222.848 325.175 222.048 328.759 222.048V236.16H325.207C320.983 236.16 317.783 237.152 315.607 239.136C313.495 241.12 312.439 244.576 312.439 249.504V276H298.999V222.816H312.439V231.072ZM361.428 276.864C356.308 276.864 351.7 275.744 347.604 273.504C343.508 271.2 340.276 267.968 337.908 263.808C335.604 259.648 334.452 254.848 334.452 249.408C334.452 243.968 335.636 239.168 338.004 235.008C340.436 230.848 343.732 227.648 347.892 225.408C352.052 223.104 356.692 221.952 361.812 221.952C366.932 221.952 371.572 223.104 375.732 225.408C379.892 227.648 383.156 230.848 385.524 235.008C387.956 239.168 389.172 243.968 389.172 249.408C389.172 254.848 387.924 259.648 385.427 263.808C382.996 267.968 379.668 271.2 375.444 273.504C371.284 275.744 366.612 276.864 361.428 276.864ZM361.428 265.152C363.86 265.152 366.132 264.576 368.244 263.424C370.42 262.208 372.148 260.416 373.428 258.048C374.708 255.68 375.348 252.8 375.348 249.408C375.348 244.352 374.004 240.48 371.316 237.792C368.692 235.04 365.46 233.664 361.62 233.664C357.78 233.664 354.548 235.04 351.924 237.792C349.364 240.48 348.084 244.352 348.084 249.408C348.084 254.464 349.332 258.368 351.828 261.12C354.388 263.808 357.588 265.152 361.428 265.152ZM421.206 263.616L434.646 222.816H448.95L429.27 276H412.95L393.366 222.816H407.766L421.206 263.616ZM505.939 248.256C505.939 250.176 505.811 251.904 505.555 253.44H466.675C466.995 257.28 468.339 260.288 470.707 262.464C473.075 264.64 475.987 265.728 479.443 265.728C484.435 265.728 487.987 263.584 490.099 259.296H504.595C503.059 264.416 500.115 268.64 495.763 271.968C491.411 275.232 486.067 276.864 479.731 276.864C474.611 276.864 470.003 275.744 465.907 273.504C461.875 271.2 458.707 267.968 456.403 263.808C454.163 259.648 453.043 254.848 453.043 249.408C453.043 243.904 454.163 239.072 456.403 234.912C458.643 230.752 461.779 227.552 465.811 225.312C469.843 223.072 474.483 221.952 479.731 221.952C484.787 221.952 489.299 223.04 493.267 225.216C497.299 227.392 500.403 230.496 502.579 234.528C504.819 238.496 505.939 243.072 505.939 248.256ZM492.019 244.416C491.955 240.96 490.707 238.208 488.275 236.16C485.843 234.048 482.867 232.992 479.347 232.992C476.019 232.992 473.203 234.016 470.899 236.064C468.659 238.048 467.283 240.832 466.771 244.416H492.019ZM512.293 249.216C512.293 243.84 513.349 239.072 515.461 234.912C517.637 230.752 520.581 227.552 524.293 225.312C528.005 223.072 532.133 221.952 536.677 221.952C540.133 221.952 543.429 222.72 546.565 224.256C549.701 225.728 552.197 227.712 554.053 230.208V204.96H567.685V276H554.053V268.128C552.389 270.752 550.053 272.864 547.045 274.464C544.037 276.064 540.549 276.864 536.581 276.864C532.101 276.864 528.005 275.712 524.293 273.408C520.581 271.104 517.637 267.872 515.461 263.712C513.349 259.488 512.293 254.656 512.293 249.216ZM554.149 249.408C554.149 246.144 553.509 243.36 552.229 241.056C550.949 238.688 549.221 236.896 547.045 235.68C544.869 234.4 542.533 233.76 540.037 233.76C537.541 233.76 535.237 234.368 533.125 235.584C531.013 236.8 529.285 238.592 527.941 240.96C526.661 243.264 526.021 246.016 526.021 249.216C526.021 252.416 526.661 255.232 527.941 257.664C529.285 260.032 531.013 261.856 533.125 263.136C535.301 264.416 537.605 265.056 540.037 265.056C542.533 265.056 544.869 264.448 547.045 263.232C549.221 261.952 550.949 260.16 552.229 257.856C553.509 255.488 554.149 252.672 554.149 249.408ZM128.8 407.616L142.24 366.816H156.544L136.864 420H120.544L100.96 366.816H115.36L128.8 407.616ZM187.709 420.864C182.589 420.864 177.981 419.744 173.885 417.504C169.789 415.2 166.557 411.968 164.189 407.808C161.885 403.648 160.733 398.848 160.733 393.408C160.733 387.968 161.917 383.168 164.285 379.008C166.717 374.848 170.013 371.648 174.173 369.408C178.333 367.104 182.973 365.952 188.093 365.952C193.213 365.952 197.853 367.104 202.013 369.408C206.173 371.648 209.437 374.848 211.805 379.008C214.237 383.168 215.453 387.968 215.453 393.408C215.453 398.848 214.205 403.648 211.709 407.808C209.277 411.968 205.949 415.2 201.725 417.504C197.565 419.744 192.893 420.864 187.709 420.864ZM187.709 409.152C190.141 409.152 192.413 408.576 194.525 407.424C196.701 406.208 198.429 404.416 199.709 402.048C200.989 399.68 201.629 396.8 201.629 393.408C201.629 388.352 200.285 384.48 197.597 381.792C194.973 379.04 191.741 377.664 187.901 377.664C184.061 377.664 180.829 379.04 178.205 381.792C175.645 384.48 174.365 388.352 174.365 393.408C174.365 398.464 175.613 402.368 178.109 405.12C180.669 407.808 183.869 409.152 187.709 409.152ZM238.752 348.96V420H225.312V348.96H238.752ZM302.238 366.816V420H288.702V413.28C286.974 415.584 284.702 417.408 281.886 418.752C279.134 420.032 276.126 420.672 272.862 420.672C268.702 420.672 265.022 419.808 261.822 418.08C258.622 416.288 256.094 413.696 254.238 410.304C252.446 406.848 251.55 402.752 251.55 398.016V366.816H264.99V396.096C264.99 400.32 266.046 403.584 268.158 405.888C270.27 408.128 273.15 409.248 276.798 409.248C280.51 409.248 283.422 408.128 285.534 405.888C287.646 403.584 288.702 400.32 288.702 396.096V366.816H302.238ZM381.547 366.048C388.075 366.048 393.323 368.064 397.291 372.096C401.323 376.064 403.339 381.632 403.339 388.8V420H389.899V390.624C389.899 386.464 388.843 383.296 386.731 381.12C384.619 378.88 381.739 377.76 378.091 377.76C374.443 377.76 371.531 378.88 369.355 381.12C367.243 383.296 366.187 386.464 366.187 390.624V420H352.747V390.624C352.747 386.464 351.691 383.296 349.579 381.12C347.467 378.88 344.587 377.76 340.939 377.76C337.227 377.76 334.283 378.88 332.107 381.12C329.995 383.296 328.939 386.464 328.939 390.624V420H315.499V366.816H328.939V373.248C330.667 371.008 332.875 369.248 335.563 367.968C338.315 366.688 341.323 366.048 344.587 366.048C348.747 366.048 352.459 366.944 355.723 368.736C358.987 370.464 361.515 372.96 363.307 376.224C365.035 373.152 367.531 370.688 370.795 368.832C374.123 366.976 377.707 366.048 381.547 366.048ZM465.533 392.256C465.533 394.176 465.405 395.904 465.149 397.44H426.269C426.589 401.28 427.933 404.288 430.301 406.464C432.669 408.64 435.581 409.728 439.037 409.728C444.029 409.728 447.581 407.584 449.693 403.296H464.189C462.653 408.416 459.709 412.64 455.357 415.968C451.005 419.232 445.661 420.864 439.325 420.864C434.205 420.864 429.597 419.744 425.501 417.504C421.469 415.2 418.301 411.968 415.997 407.808C413.757 403.648 412.637 398.848 412.637 393.408C412.637 387.904 413.757 383.072 415.997 378.912C418.237 374.752 421.373 371.552 425.405 369.312C429.437 367.072 434.077 365.952 439.325 365.952C444.381 365.952 448.893 367.04 452.861 369.216C456.893 371.392 459.997 374.496 462.173 378.528C464.413 382.496 465.533 387.072 465.533 392.256ZM451.613 388.416C451.549 384.96 450.301 382.208 447.869 380.16C445.437 378.048 442.461 376.992 438.941 376.992C435.613 376.992 432.797 378.016 430.493 380.064C428.253 382.048 426.877 384.832 426.365 388.416H451.613ZM103.168 537.408C103.168 531.904 104.288 527.104 106.528 523.008C108.768 518.848 111.872 515.648 115.84 513.408C119.808 511.104 124.352 509.952 129.472 509.952C136.064 509.952 141.504 511.616 145.792 514.944C150.144 518.208 153.056 522.816 154.528 528.768H140.032C139.264 526.464 137.952 524.672 136.096 523.392C134.304 522.048 132.064 521.376 129.376 521.376C125.536 521.376 122.496 522.784 120.256 525.6C118.016 528.352 116.896 532.288 116.896 537.408C116.896 542.464 118.016 546.4 120.256 549.216C122.496 551.968 125.536 553.344 129.376 553.344C134.816 553.344 138.368 550.912 140.032 546.048H154.528C153.056 551.808 150.144 556.384 145.792 559.776C141.44 563.168 136 564.864 129.472 564.864C124.352 564.864 119.808 563.744 115.84 561.504C111.872 559.2 108.768 556 106.528 551.904C104.288 547.744 103.168 542.912 103.168 537.408ZM187.99 564.864C182.87 564.864 178.262 563.744 174.166 561.504C170.07 559.2 166.838 555.968 164.47 551.808C162.166 547.648 161.014 542.848 161.014 537.408C161.014 531.968 162.198 527.168 164.566 523.008C166.998 518.848 170.294 515.648 174.454 513.408C178.614 511.104 183.254 509.952 188.374 509.952C193.494 509.952 198.134 511.104 202.294 513.408C206.454 515.648 209.718 518.848 212.086 523.008C214.518 527.168 215.734 531.968 215.734 537.408C215.734 542.848 214.486 547.648 211.99 551.808C209.558 555.968 206.23 559.2 202.006 561.504C197.846 563.744 193.174 564.864 187.99 564.864ZM187.99 553.152C190.422 553.152 192.694 552.576 194.806 551.424C196.982 550.208 198.71 548.416 199.99 546.048C201.27 543.68 201.91 540.8 201.91 537.408C201.91 532.352 200.566 528.48 197.878 525.792C195.254 523.04 192.022 521.664 188.182 521.664C184.342 521.664 181.11 523.04 178.486 525.792C175.926 528.48 174.646 532.352 174.646 537.408C174.646 542.464 175.894 546.368 178.39 549.12C180.95 551.808 184.15 553.152 187.99 553.152ZM255.065 510.048C261.401 510.048 266.521 512.064 270.425 516.096C274.329 520.064 276.281 525.632 276.281 532.8V564H262.841V534.624C262.841 530.4 261.785 527.168 259.673 524.928C257.561 522.624 254.681 521.472 251.033 521.472C247.321 521.472 244.377 522.624 242.201 524.928C240.089 527.168 239.033 530.4 239.033 534.624V564H225.593V510.816H239.033V517.44C240.825 515.136 243.097 513.344 245.849 512.064C248.665 510.72 251.737 510.048 255.065 510.048ZM304.71 521.856V547.584C304.71 549.376 305.126 550.688 305.958 551.52C306.854 552.288 308.326 552.672 310.374 552.672H316.614V564H308.166C296.838 564 291.174 558.496 291.174 547.488V521.856H284.838V510.816H291.174V497.664H304.71V510.816H316.614V521.856H304.71ZM339.72 519.072C341.448 516.256 343.688 514.048 346.44 512.448C349.256 510.848 352.456 510.048 356.04 510.048V524.16H352.488C348.264 524.16 345.064 525.152 342.888 527.136C340.776 529.12 339.72 532.576 339.72 537.504V564H326.28V510.816H339.72V519.072ZM388.709 564.864C383.589 564.864 378.981 563.744 374.885 561.504C370.789 559.2 367.557 555.968 365.189 551.808C362.885 547.648 361.733 542.848 361.733 537.408C361.733 531.968 362.917 527.168 365.285 523.008C367.717 518.848 371.013 515.648 375.173 513.408C379.333 511.104 383.973 509.952 389.093 509.952C394.213 509.952 398.853 511.104 403.013 513.408C407.173 515.648 410.437 518.848 412.805 523.008C415.237 527.168 416.453 531.968 416.453 537.408C416.453 542.848 415.205 547.648 412.709 551.808C410.277 555.968 406.949 559.2 402.725 561.504C398.565 563.744 393.893 564.864 388.709 564.864ZM388.709 553.152C391.141 553.152 393.413 552.576 395.525 551.424C397.701 550.208 399.429 548.416 400.709 546.048C401.989 543.68 402.629 540.8 402.629 537.408C402.629 532.352 401.285 528.48 398.597 525.792C395.973 523.04 392.741 521.664 388.901 521.664C385.061 521.664 381.829 523.04 379.205 525.792C376.645 528.48 375.365 532.352 375.365 537.408C375.365 542.464 376.613 546.368 379.109 549.12C381.669 551.808 384.869 553.152 388.709 553.152ZM439.752 492.96V564H426.312V492.96H439.752Z" fill="white"/>
</svg>
