<svg width="1750" height="875" viewBox="0 0 1750 875" fill="none" xmlns="http://www.w3.org/2000/svg">
<rect width="1750" height="875" rx="80" fill="#DB4437"/>
<rect x="1203" y="137" width="400" height="600" rx="40" fill="white"/>
<path d="M1203 617H1603V697C1603 719.091 1585.09 737 1563 737H1243C1220.91 737 1203 719.091 1203 697V617Z" fill="black" fill-opacity="0.1"/>
<rect x="1375.33" y="510" width="53.3333" height="53.3333" fill="#4285F4"/>
<circle cx="1515.33" cy="536.667" r="26.6667" fill="#F4B400"/>
<path d="M1288.67 510L1315.33 563.333H1262L1288.67 510Z" fill="#0F9D58"/>
<line x1="1287.67" y1="443.666" x2="1287.67" y2="283.666" stroke="black" stroke-width="10"/>
<line x1="1287.67" y1="283.667" x2="1287.67" y2="203.667" stroke="black" stroke-opacity="0.1" stroke-width="10"/>
<line x1="1514.34" y1="363.666" x2="1514.34" y2="203.666" stroke="black" stroke-opacity="0.1" stroke-width="10"/>
<line x1="1401" y1="443.667" x2="1401" y2="203.667" stroke="black" stroke-width="10"/>
<line x1="1514.34" y1="443.666" x2="1514.34" y2="363.666" stroke="black" stroke-width="10"/>
<circle cx="1288.33" cy="283.666" r="13.3333" fill="black"/>
<circle cx="1401.66" cy="216.333" r="13.3333" fill="black"/>
<circle cx="1515" cy="363.666" r="13.3333" fill="black"/>
<line x1="1258.36" y1="697.272" x2="1281.93" y2="673.702" stroke="black" stroke-width="10"/>
<line x1="1281.93" y1="680.773" x2="1258.36" y2="657.203" stroke="black" stroke-width="10"/>
<path d="M171.064 259.992V327H157.624V259.992H171.064ZM250.391 273.048C256.919 273.048 262.167 275.064 266.135 279.096C270.167 283.064 272.183 288.632 272.183 295.8V327H258.743V297.624C258.743 293.464 257.687 290.296 255.575 288.12C253.463 285.88 250.583 284.76 246.935 284.76C243.287 284.76 240.375 285.88 238.199 288.12C236.087 290.296 235.031 293.464 235.031 297.624V327H221.591V297.624C221.591 293.464 220.535 290.296 218.423 288.12C216.311 285.88 213.431 284.76 209.783 284.76C206.071 284.76 203.127 285.88 200.951 288.12C198.839 290.296 197.783 293.464 197.783 297.624V327H184.343V273.816H197.783V280.248C199.511 278.008 201.719 276.248 204.407 274.968C207.159 273.688 210.167 273.048 213.431 273.048C217.591 273.048 221.303 273.944 224.567 275.736C227.831 277.464 230.359 279.96 232.151 283.224C233.879 280.152 236.375 277.688 239.639 275.832C242.967 273.976 246.551 273.048 250.391 273.048ZM298.377 281.496C300.105 279.064 302.473 277.048 305.481 275.448C308.553 273.784 312.041 272.952 315.945 272.952C320.489 272.952 324.585 274.072 328.233 276.312C331.945 278.552 334.857 281.752 336.969 285.912C339.145 290.008 340.233 294.776 340.233 300.216C340.233 305.656 339.145 310.488 336.969 314.712C334.857 318.872 331.945 322.104 328.233 324.408C324.585 326.712 320.489 327.864 315.945 327.864C312.041 327.864 308.585 327.064 305.577 325.464C302.633 323.864 300.233 321.848 298.377 319.416V352.344H284.937V273.816H298.377V281.496ZM326.505 300.216C326.505 297.016 325.833 294.264 324.489 291.96C323.209 289.592 321.481 287.8 319.305 286.584C317.193 285.368 314.889 284.76 312.393 284.76C309.961 284.76 307.657 285.4 305.481 286.68C303.369 287.896 301.641 289.688 300.297 292.056C299.017 294.424 298.377 297.208 298.377 300.408C298.377 303.608 299.017 306.392 300.297 308.76C301.641 311.128 303.369 312.952 305.481 314.232C307.657 315.448 309.961 316.056 312.393 316.056C314.889 316.056 317.193 315.416 319.305 314.136C321.481 312.856 323.209 311.032 324.489 308.664C325.833 306.296 326.505 303.48 326.505 300.216ZM363.439 282.072C365.167 279.256 367.407 277.048 370.159 275.448C372.975 273.848 376.175 273.048 379.759 273.048V287.16H376.207C371.983 287.16 368.783 288.152 366.607 290.136C364.495 292.12 363.439 295.576 363.439 300.504V327H349.999V273.816H363.439V282.072ZM412.428 327.864C407.308 327.864 402.7 326.744 398.604 324.504C394.508 322.2 391.276 318.968 388.908 314.808C386.604 310.648 385.452 305.848 385.452 300.408C385.452 294.968 386.636 290.168 389.004 286.008C391.436 281.848 394.732 278.648 398.892 276.408C403.052 274.104 407.692 272.952 412.812 272.952C417.932 272.952 422.572 274.104 426.732 276.408C430.892 278.648 434.156 281.848 436.524 286.008C438.956 290.168 440.172 294.968 440.172 300.408C440.172 305.848 438.924 310.648 436.427 314.808C433.996 318.968 430.668 322.2 426.444 324.504C422.284 326.744 417.612 327.864 412.428 327.864ZM412.428 316.152C414.86 316.152 417.132 315.576 419.244 314.424C421.42 313.208 423.148 311.416 424.428 309.048C425.708 306.68 426.348 303.8 426.348 300.408C426.348 295.352 425.004 291.48 422.316 288.792C419.692 286.04 416.46 284.664 412.62 284.664C408.78 284.664 405.548 286.04 402.924 288.792C400.364 291.48 399.084 295.352 399.084 300.408C399.084 305.464 400.332 309.368 402.828 312.12C405.388 314.808 408.588 316.152 412.428 316.152ZM472.206 314.616L485.646 273.816H499.95L480.27 327H463.95L444.366 273.816H458.766L472.206 314.616ZM556.939 299.256C556.939 301.176 556.811 302.904 556.555 304.44H517.675C517.995 308.28 519.339 311.288 521.707 313.464C524.075 315.64 526.987 316.728 530.443 316.728C535.435 316.728 538.987 314.584 541.099 310.296H555.595C554.059 315.416 551.115 319.64 546.763 322.968C542.411 326.232 537.067 327.864 530.731 327.864C525.611 327.864 521.003 326.744 516.907 324.504C512.875 322.2 509.707 318.968 507.403 314.808C505.163 310.648 504.043 305.848 504.043 300.408C504.043 294.904 505.163 290.072 507.403 285.912C509.643 281.752 512.779 278.552 516.811 276.312C520.843 274.072 525.483 272.952 530.731 272.952C535.787 272.952 540.299 274.04 544.267 276.216C548.299 278.392 551.403 281.496 553.579 285.528C555.819 289.496 556.939 294.072 556.939 299.256ZM543.019 295.416C542.955 291.96 541.707 289.208 539.275 287.16C536.843 285.048 533.867 283.992 530.347 283.992C527.019 283.992 524.203 285.016 521.899 287.064C519.659 289.048 518.283 291.832 517.771 295.416H543.019ZM563.293 300.216C563.293 294.84 564.349 290.072 566.461 285.912C568.637 281.752 571.581 278.552 575.293 276.312C579.005 274.072 583.133 272.952 587.677 272.952C591.133 272.952 594.429 273.72 597.565 275.256C600.701 276.728 603.197 278.712 605.053 281.208V255.96H618.685V327H605.053V319.128C603.389 321.752 601.053 323.864 598.045 325.464C595.037 327.064 591.549 327.864 587.581 327.864C583.101 327.864 579.005 326.712 575.293 324.408C571.581 322.104 568.637 318.872 566.461 314.712C564.349 310.488 563.293 305.656 563.293 300.216ZM605.149 300.408C605.149 297.144 604.509 294.36 603.229 292.056C601.949 289.688 600.221 287.896 598.045 286.68C595.869 285.4 593.533 284.76 591.037 284.76C588.541 284.76 586.237 285.368 584.125 286.584C582.013 287.8 580.285 289.592 578.941 291.96C577.661 294.264 577.021 297.016 577.021 300.216C577.021 303.416 577.661 306.232 578.941 308.664C580.285 311.032 582.013 312.856 584.125 314.136C586.301 315.416 588.605 316.056 591.037 316.056C593.533 316.056 595.869 315.448 598.045 314.232C600.221 312.952 601.949 311.16 603.229 308.856C604.509 306.488 605.149 303.672 605.149 300.408ZM179.8 458.616L193.24 417.816H207.544L187.864 471H171.544L151.96 417.816H166.36L179.8 458.616ZM238.709 471.864C233.589 471.864 228.981 470.744 224.885 468.504C220.789 466.2 217.557 462.968 215.189 458.808C212.885 454.648 211.733 449.848 211.733 444.408C211.733 438.968 212.917 434.168 215.285 430.008C217.717 425.848 221.013 422.648 225.173 420.408C229.333 418.104 233.973 416.952 239.093 416.952C244.213 416.952 248.853 418.104 253.013 420.408C257.173 422.648 260.437 425.848 262.805 430.008C265.237 434.168 266.453 438.968 266.453 444.408C266.453 449.848 265.205 454.648 262.709 458.808C260.277 462.968 256.949 466.2 252.725 468.504C248.565 470.744 243.893 471.864 238.709 471.864ZM238.709 460.152C241.141 460.152 243.413 459.576 245.525 458.424C247.701 457.208 249.429 455.416 250.709 453.048C251.989 450.68 252.629 447.8 252.629 444.408C252.629 439.352 251.285 435.48 248.597 432.792C245.973 430.04 242.741 428.664 238.901 428.664C235.061 428.664 231.829 430.04 229.205 432.792C226.645 435.48 225.365 439.352 225.365 444.408C225.365 449.464 226.613 453.368 229.109 456.12C231.669 458.808 234.869 460.152 238.709 460.152ZM289.752 399.96V471H276.312V399.96H289.752ZM353.238 417.816V471H339.702V464.28C337.974 466.584 335.702 468.408 332.886 469.752C330.134 471.032 327.126 471.672 323.862 471.672C319.702 471.672 316.022 470.808 312.822 469.08C309.622 467.288 307.094 464.696 305.238 461.304C303.446 457.848 302.55 453.752 302.55 449.016V417.816H315.99V447.096C315.99 451.32 317.046 454.584 319.158 456.888C321.27 459.128 324.15 460.248 327.798 460.248C331.51 460.248 334.422 459.128 336.534 456.888C338.646 454.584 339.702 451.32 339.702 447.096V417.816H353.238ZM432.547 417.048C439.075 417.048 444.323 419.064 448.291 423.096C452.323 427.064 454.339 432.632 454.339 439.8V471H440.899V441.624C440.899 437.464 439.843 434.296 437.731 432.12C435.619 429.88 432.739 428.76 429.091 428.76C425.443 428.76 422.531 429.88 420.355 432.12C418.243 434.296 417.187 437.464 417.187 441.624V471H403.747V441.624C403.747 437.464 402.691 434.296 400.579 432.12C398.467 429.88 395.587 428.76 391.939 428.76C388.227 428.76 385.283 429.88 383.107 432.12C380.995 434.296 379.939 437.464 379.939 441.624V471H366.499V417.816H379.939V424.248C381.667 422.008 383.875 420.248 386.563 418.968C389.315 417.688 392.323 417.048 395.587 417.048C399.747 417.048 403.459 417.944 406.723 419.736C409.987 421.464 412.515 423.96 414.307 427.224C416.035 424.152 418.531 421.688 421.795 419.832C425.123 417.976 428.707 417.048 432.547 417.048ZM516.533 443.256C516.533 445.176 516.405 446.904 516.149 448.44H477.269C477.589 452.28 478.933 455.288 481.301 457.464C483.669 459.64 486.581 460.728 490.037 460.728C495.029 460.728 498.581 458.584 500.693 454.296H515.189C513.653 459.416 510.709 463.64 506.357 466.968C502.005 470.232 496.661 471.864 490.325 471.864C485.205 471.864 480.597 470.744 476.501 468.504C472.469 466.2 469.301 462.968 466.997 458.808C464.757 454.648 463.637 449.848 463.637 444.408C463.637 438.904 464.757 434.072 466.997 429.912C469.237 425.752 472.373 422.552 476.405 420.312C480.437 418.072 485.077 416.952 490.325 416.952C495.381 416.952 499.893 418.04 503.861 420.216C507.893 422.392 510.997 425.496 513.173 429.528C515.413 433.496 516.533 438.072 516.533 443.256ZM502.613 439.416C502.549 435.96 501.301 433.208 498.869 431.16C496.437 429.048 493.461 427.992 489.941 427.992C486.613 427.992 483.797 429.016 481.493 431.064C479.253 433.048 477.877 435.832 477.365 439.416H502.613ZM154.168 588.408C154.168 582.904 155.288 578.104 157.528 574.008C159.768 569.848 162.872 566.648 166.84 564.408C170.808 562.104 175.352 560.952 180.472 560.952C187.064 560.952 192.504 562.616 196.792 565.944C201.144 569.208 204.056 573.816 205.528 579.768H191.032C190.264 577.464 188.952 575.672 187.096 574.392C185.304 573.048 183.064 572.376 180.376 572.376C176.536 572.376 173.496 573.784 171.256 576.6C169.016 579.352 167.896 583.288 167.896 588.408C167.896 593.464 169.016 597.4 171.256 600.216C173.496 602.968 176.536 604.344 180.376 604.344C185.816 604.344 189.368 601.912 191.032 597.048H205.528C204.056 602.808 201.144 607.384 196.792 610.776C192.44 614.168 187 615.864 180.472 615.864C175.352 615.864 170.808 614.744 166.84 612.504C162.872 610.2 159.768 607 157.528 602.904C155.288 598.744 154.168 593.912 154.168 588.408ZM238.99 615.864C233.87 615.864 229.262 614.744 225.166 612.504C221.07 610.2 217.838 606.968 215.47 602.808C213.166 598.648 212.014 593.848 212.014 588.408C212.014 582.968 213.198 578.168 215.566 574.008C217.998 569.848 221.294 566.648 225.454 564.408C229.614 562.104 234.254 560.952 239.374 560.952C244.494 560.952 249.134 562.104 253.294 564.408C257.454 566.648 260.718 569.848 263.086 574.008C265.518 578.168 266.734 582.968 266.734 588.408C266.734 593.848 265.486 598.648 262.99 602.808C260.558 606.968 257.23 610.2 253.006 612.504C248.846 614.744 244.174 615.864 238.99 615.864ZM238.99 604.152C241.422 604.152 243.694 603.576 245.806 602.424C247.982 601.208 249.71 599.416 250.99 597.048C252.27 594.68 252.91 591.8 252.91 588.408C252.91 583.352 251.566 579.48 248.878 576.792C246.254 574.04 243.022 572.664 239.182 572.664C235.342 572.664 232.11 574.04 229.486 576.792C226.926 579.48 225.646 583.352 225.646 588.408C225.646 593.464 226.894 597.368 229.39 600.12C231.95 602.808 235.15 604.152 238.99 604.152ZM306.065 561.048C312.401 561.048 317.521 563.064 321.425 567.096C325.329 571.064 327.281 576.632 327.281 583.8V615H313.841V585.624C313.841 581.4 312.785 578.168 310.673 575.928C308.561 573.624 305.681 572.472 302.033 572.472C298.321 572.472 295.377 573.624 293.201 575.928C291.089 578.168 290.033 581.4 290.033 585.624V615H276.593V561.816H290.033V568.44C291.825 566.136 294.097 564.344 296.849 563.064C299.665 561.72 302.737 561.048 306.065 561.048ZM355.71 572.856V598.584C355.71 600.376 356.126 601.688 356.958 602.52C357.854 603.288 359.326 603.672 361.374 603.672H367.614V615H359.166C347.838 615 342.174 609.496 342.174 598.488V572.856H335.838V561.816H342.174V548.664H355.71V561.816H367.614V572.856H355.71ZM390.72 570.072C392.448 567.256 394.688 565.048 397.44 563.448C400.256 561.848 403.456 561.048 407.04 561.048V575.16H403.488C399.264 575.16 396.064 576.152 393.888 578.136C391.776 580.12 390.72 583.576 390.72 588.504V615H377.28V561.816H390.72V570.072ZM439.709 615.864C434.589 615.864 429.981 614.744 425.885 612.504C421.789 610.2 418.557 606.968 416.189 602.808C413.885 598.648 412.733 593.848 412.733 588.408C412.733 582.968 413.917 578.168 416.285 574.008C418.717 569.848 422.013 566.648 426.173 564.408C430.333 562.104 434.973 560.952 440.093 560.952C445.213 560.952 449.853 562.104 454.013 564.408C458.173 566.648 461.437 569.848 463.805 574.008C466.237 578.168 467.453 582.968 467.453 588.408C467.453 593.848 466.205 598.648 463.709 602.808C461.277 606.968 457.949 610.2 453.725 612.504C449.565 614.744 444.893 615.864 439.709 615.864ZM439.709 604.152C442.141 604.152 444.413 603.576 446.525 602.424C448.701 601.208 450.429 599.416 451.709 597.048C452.989 594.68 453.629 591.8 453.629 588.408C453.629 583.352 452.285 579.48 449.597 576.792C446.973 574.04 443.741 572.664 439.901 572.664C436.061 572.664 432.829 574.04 430.205 576.792C427.645 579.48 426.365 583.352 426.365 588.408C426.365 593.464 427.613 597.368 430.109 600.12C432.669 602.808 435.869 604.152 439.709 604.152ZM490.752 543.96V615H477.312V543.96H490.752Z" fill="white"/>
</svg>
